<svg width="224" height="71" viewBox="0 0 224 71" fill="none" xmlns="http://www.w3.org/2000/svg">
<rect width="224" height="70" transform="translate(0 0.5)" fill="#AD1AAF"/>
<path d="M45.9165 41.5V26.32H55.9485V28.344H48.1385V32.568H55.2885V34.592H48.1385V39.476H55.9485V41.5H45.9165ZM57.681 41.126L61.663 35.648L57.835 30.39L58.011 30.016H59.991L62.873 34.086L65.777 30.016H67.735L67.933 30.39L64.105 35.648L68.065 41.126L67.889 41.5H65.909L62.873 37.232L59.837 41.5H57.879L57.681 41.126ZM70.425 45.9V30.016H76.651C78.895 30.016 80.017 31.138 80.017 33.382V38.112C80.017 40.3707 78.895 41.5 76.651 41.5H72.559V45.9H70.425ZM72.559 39.63H76.607C77.4577 39.63 77.883 39.1973 77.883 38.332V33.162C77.883 32.3113 77.4577 31.886 76.607 31.886H72.559V39.63ZM83.1846 38.046V25.22H85.3186V38.266C85.3186 39.2487 85.8173 39.7767 86.8146 39.85V41.698C84.3946 41.698 83.1846 40.4807 83.1846 38.046ZM89.1552 38.112V33.382C89.1552 31.138 90.2772 30.016 92.5212 30.016H95.6012C97.8452 30.016 98.9672 31.138 98.9672 33.382V38.112C98.9672 40.3707 97.8452 41.5 95.6012 41.5H92.5212C90.2772 41.5 89.1552 40.3707 89.1552 38.112ZM91.2892 38.332C91.2892 39.1973 91.7219 39.63 92.5872 39.63H95.5572C96.4079 39.63 96.8332 39.1973 96.8332 38.332V33.162C96.8332 32.3113 96.4079 31.886 95.5572 31.886H92.5872C91.7219 31.886 91.2892 32.3113 91.2892 33.162V38.332ZM102.134 41.5V31.38C102.647 30.4707 103.623 30.016 105.06 30.016H107.326L108.338 30.764V31.886H105.478C104.906 31.886 104.503 32.0327 104.268 32.326V41.5H102.134ZM110.446 38.112V33.382C110.446 31.138 111.568 30.016 113.812 30.016H116.672C118.916 30.016 120.038 31.138 120.038 33.382V36.55H112.58V38.332C112.58 39.1973 113.013 39.63 113.878 39.63H119.598V40.752L118.608 41.5H113.812C111.568 41.5 110.446 40.3707 110.446 38.112ZM112.58 34.878H117.904V33.162C117.904 32.3113 117.479 31.886 116.628 31.886H113.878C113.013 31.886 112.58 32.3113 112.58 33.162V34.878ZM128.803 41.5V26.32H131.619L136.459 36.616L141.299 26.32H144.137V41.5H141.893V29.928L137.471 39.366H135.469L131.025 29.928V41.5H128.803ZM147.593 38.112V33.382C147.593 31.138 148.715 30.016 150.959 30.016H154.039C156.283 30.016 157.405 31.138 157.405 33.382V38.112C157.405 40.3707 156.283 41.5 154.039 41.5H150.959C148.715 41.5 147.593 40.3707 147.593 38.112ZM149.727 38.332C149.727 39.1973 150.159 39.63 151.025 39.63H153.995C154.845 39.63 155.271 39.1973 155.271 38.332V33.162C155.271 32.3113 154.845 31.886 153.995 31.886H151.025C150.159 31.886 149.727 32.3113 149.727 33.162V38.332ZM160.571 41.5V31.38C161.085 30.4707 162.06 30.016 163.497 30.016H165.763L166.775 30.764V31.886H163.915C163.343 31.886 162.94 32.0327 162.705 32.326V41.5H160.571ZM168.884 38.112V33.382C168.884 31.138 170.006 30.016 172.25 30.016H175.11C177.354 30.016 178.476 31.138 178.476 33.382V36.55H171.018V38.332C171.018 39.1973 171.45 39.63 172.316 39.63H178.036V40.752L177.046 41.5H172.25C170.006 41.5 168.884 40.3707 168.884 38.112ZM171.018 34.878H176.342V33.162C176.342 32.3113 175.916 31.886 175.066 31.886H172.316C171.45 31.886 171.018 32.3113 171.018 33.162V34.878Z" fill="white"/>
</svg>
