<svg width="160" height="44" viewBox="0 0 160 44" fill="none" xmlns="http://www.w3.org/2000/svg">
<rect width="160" height="43" transform="translate(0 0.5)" fill="#AD1AAF"/>
<path d="M17.7272 24.656V17.924C17.7272 16.028 18.6692 15.08 20.5532 15.08H25.5572L26.4752 15.8V16.736H20.5712C19.8872 16.736 19.5452 17.072 19.5452 17.744V24.836C19.5452 25.508 19.8872 25.844 20.5712 25.844H26.4752V26.78L25.5572 27.5H20.5532C18.6692 27.5 17.7272 26.552 17.7272 24.656ZM28.6399 24.728V20.858C28.6399 19.022 29.5579 18.104 31.3939 18.104H33.9139C35.7499 18.104 36.6679 19.022 36.6679 20.858V24.728C36.6679 26.576 35.7499 27.5 33.9139 27.5H31.3939C29.5579 27.5 28.6399 26.576 28.6399 24.728ZM30.3859 24.908C30.3859 25.616 30.7399 25.97 31.4479 25.97H33.8779C34.5739 25.97 34.9219 25.616 34.9219 24.908V20.678C34.9219 19.982 34.5739 19.634 33.8779 19.634H31.4479C30.7399 19.634 30.3859 19.982 30.3859 20.678V24.908ZM39.3308 27.5V18.104H44.4248C46.2608 18.104 47.1788 19.022 47.1788 20.858V27.5H45.4328V20.678C45.4328 19.982 45.0848 19.634 44.3888 19.634H41.0768V27.5H39.3308ZM49.9128 27.5V18.104H55.0068C56.8428 18.104 57.7608 19.022 57.7608 20.858V27.5H56.0148V20.678C56.0148 19.982 55.6668 19.634 54.9708 19.634H51.6588V27.5H49.9128ZM60.3508 24.728V20.858C60.3508 19.022 61.2688 18.104 63.1048 18.104H65.4448C67.2808 18.104 68.1988 19.022 68.1988 20.858V23.45H62.0968V24.908C62.0968 25.616 62.4508 25.97 63.1588 25.97H67.8388V26.888L67.0288 27.5H63.1048C61.2688 27.5 60.3508 26.576 60.3508 24.728ZM62.0968 22.082H66.4528V20.678C66.4528 19.982 66.1048 19.634 65.4088 19.634H63.1588C62.4508 19.634 62.0968 19.982 62.0968 20.678V22.082ZM70.7219 24.728V20.858C70.7219 19.022 71.6399 18.104 73.4759 18.104H76.9499L77.7779 18.716V19.634H73.5299C72.8219 19.634 72.4679 19.982 72.4679 20.678V24.908C72.4679 25.616 72.8219 25.97 73.5299 25.97H77.7779V26.888L76.9499 27.5H73.4759C71.6399 27.5 70.7219 26.576 70.7219 24.728ZM79.9345 24.728V15.08H81.6805V18.104H85.0105V19.634H81.6805V24.908C81.6805 25.616 82.0345 25.97 82.7425 25.97H85.1905V26.888L84.3625 27.5H82.6885C80.8525 27.5 79.9345 26.576 79.9345 24.728ZM90.6909 15.458L90.9609 15.08H92.4369L94.8669 25.844H95.0829L97.6389 16.394H99.4569L101.995 25.844H102.229L104.641 15.08H106.117L106.387 15.458L103.651 27.5H100.681L98.5389 19.49L96.4149 27.5H93.4449L90.6909 15.458ZM110.03 27.5C108.182 27.5 107.258 26.582 107.258 24.746C107.258 22.91 108.182 21.992 110.03 21.992H113.072V20.678C113.072 19.982 112.724 19.634 112.028 19.634H108.176V18.716L109.004 18.104H112.064C113.9 18.104 114.818 19.022 114.818 20.858V27.5H110.03ZM109.004 24.908C109.004 25.616 109.358 25.97 110.066 25.97H113.072V23.36H110.066C109.358 23.36 109.004 23.714 109.004 24.422V24.908ZM117.481 24.674V14.18H119.227V24.854C119.227 25.658 119.635 26.09 120.451 26.15V27.662C118.471 27.662 117.481 26.666 117.481 24.674ZM122.438 24.674V14.18H124.184V24.854C124.184 25.658 124.592 26.09 125.408 26.15V27.662C123.428 27.662 122.438 26.666 122.438 24.674ZM127.323 24.728V20.858C127.323 19.022 128.241 18.104 130.077 18.104H132.417C134.253 18.104 135.171 19.022 135.171 20.858V23.45H129.069V24.908C129.069 25.616 129.423 25.97 130.131 25.97H134.811V26.888L134.001 27.5H130.077C128.241 27.5 127.323 26.576 127.323 24.728ZM129.069 22.082H133.425V20.678C133.425 19.982 133.077 19.634 132.381 19.634H130.131C129.423 19.634 129.069 19.982 129.069 20.678V22.082ZM137.767 24.728V15.08H139.513V18.104H142.843V19.634H139.513V24.908C139.513 25.616 139.867 25.97 140.575 25.97H143.023V26.888L142.195 27.5H140.521C138.685 27.5 137.767 26.576 137.767 24.728Z" fill="white"/>
</svg>
