<svg width="916" height="200" viewBox="0 0 916 200" fill="none" xmlns="http://www.w3.org/2000/svg">
<path d="M180.4 9.125H174.6V25H172.188V9.125H166.375V7.0875H180.4V9.125ZM181.887 14.875C182.287 14.0083 182.778 13.3333 183.362 12.85C183.945 12.3583 184.658 12.1125 185.499 12.1125C185.766 12.1125 186.02 12.1417 186.262 12.2C186.512 12.2583 186.733 12.35 186.924 12.475L186.762 14.1375C186.712 14.3458 186.587 14.45 186.387 14.45C186.27 14.45 186.099 14.425 185.874 14.375C185.649 14.325 185.395 14.3 185.112 14.3C184.712 14.3 184.353 14.3583 184.037 14.475C183.728 14.5917 183.449 14.7667 183.199 15C182.958 15.225 182.737 15.5083 182.537 15.85C182.345 16.1833 182.17 16.5667 182.012 17V25H179.774V12.3375H181.049C181.291 12.3375 181.458 12.3833 181.549 12.475C181.641 12.5667 181.703 12.725 181.737 12.95L181.887 14.875ZM195.548 19.3C194.523 19.3333 193.648 19.4167 192.923 19.55C192.206 19.675 191.619 19.8417 191.16 20.05C190.71 20.2583 190.381 20.5042 190.173 20.7875C189.973 21.0708 189.873 21.3875 189.873 21.7375C189.873 22.0708 189.927 22.3583 190.035 22.6C190.144 22.8417 190.29 23.0417 190.473 23.2C190.665 23.35 190.885 23.4625 191.135 23.5375C191.394 23.6042 191.669 23.6375 191.96 23.6375C192.352 23.6375 192.71 23.6 193.035 23.525C193.36 23.4417 193.665 23.325 193.948 23.175C194.24 23.025 194.515 22.8458 194.773 22.6375C195.04 22.4292 195.298 22.1917 195.548 21.925V19.3ZM188.36 14.125C189.06 13.45 189.815 12.9458 190.623 12.6125C191.431 12.2792 192.327 12.1125 193.31 12.1125C194.019 12.1125 194.648 12.2292 195.198 12.4625C195.748 12.6958 196.21 13.0208 196.585 13.4375C196.96 13.8542 197.244 14.3583 197.435 14.95C197.627 15.5417 197.723 16.1917 197.723 16.9V25H196.735C196.519 25 196.352 24.9667 196.235 24.9C196.119 24.825 196.027 24.6833 195.96 24.475L195.71 23.275C195.377 23.5833 195.052 23.8583 194.735 24.1C194.419 24.3333 194.085 24.5333 193.735 24.7C193.385 24.8583 193.01 24.9792 192.61 25.0625C192.219 25.1542 191.781 25.2 191.298 25.2C190.806 25.2 190.344 25.1333 189.91 25C189.477 24.8583 189.098 24.65 188.773 24.375C188.456 24.1 188.202 23.7542 188.01 23.3375C187.827 22.9125 187.735 22.4125 187.735 21.8375C187.735 21.3375 187.873 20.8583 188.148 20.4C188.423 19.9333 188.869 19.5208 189.485 19.1625C190.102 18.8042 190.906 18.5125 191.898 18.2875C192.89 18.0542 194.106 17.9208 195.548 17.8875V16.9C195.548 15.9167 195.335 15.175 194.91 14.675C194.485 14.1667 193.865 13.9125 193.048 13.9125C192.498 13.9125 192.035 13.9833 191.66 14.125C191.294 14.2583 190.973 14.4125 190.698 14.5875C190.431 14.7542 190.198 14.9083 189.998 15.05C189.806 15.1833 189.615 15.25 189.423 15.25C189.273 15.25 189.144 15.2125 189.035 15.1375C188.927 15.0542 188.835 14.9542 188.76 14.8375L188.36 14.125ZM209.362 15.35C208.945 14.7917 208.495 14.4042 208.012 14.1875C207.529 13.9625 206.987 13.85 206.387 13.85C205.212 13.85 204.308 14.2708 203.675 15.1125C203.041 15.9542 202.725 17.1542 202.725 18.7125C202.725 19.5375 202.795 20.2458 202.937 20.8375C203.079 21.4208 203.287 21.9042 203.562 22.2875C203.837 22.6625 204.175 22.9375 204.575 23.1125C204.975 23.2875 205.429 23.375 205.937 23.375C206.67 23.375 207.308 23.2083 207.85 22.875C208.4 22.5417 208.904 22.0708 209.362 21.4625V15.35ZM211.587 6.5875V25H210.262C209.945 25 209.745 24.8458 209.662 24.5375L209.462 23C208.92 23.65 208.304 24.175 207.612 24.575C206.92 24.975 206.12 25.175 205.212 25.175C204.487 25.175 203.829 25.0375 203.237 24.7625C202.645 24.4792 202.141 24.0667 201.725 23.525C201.308 22.9833 200.987 22.3083 200.762 21.5C200.537 20.6917 200.425 19.7625 200.425 18.7125C200.425 17.7792 200.55 16.9125 200.8 16.1125C201.05 15.3042 201.408 14.6042 201.875 14.0125C202.341 13.4208 202.912 12.9583 203.587 12.625C204.27 12.2833 205.037 12.1125 205.887 12.1125C206.662 12.1125 207.325 12.2458 207.875 12.5125C208.433 12.7708 208.929 13.1333 209.362 13.6V6.5875H211.587ZM223.576 17.2875C223.576 16.7708 223.501 16.3 223.351 15.875C223.21 15.4417 222.997 15.0708 222.714 14.7625C222.439 14.4458 222.101 14.2042 221.701 14.0375C221.301 13.8625 220.847 13.775 220.339 13.775C219.272 13.775 218.426 14.0875 217.801 14.7125C217.185 15.3292 216.801 16.1875 216.651 17.2875H223.576ZM225.376 23.225C225.101 23.5583 224.772 23.85 224.389 24.1C224.006 24.3417 223.593 24.5417 223.151 24.7C222.718 24.8583 222.268 24.975 221.801 25.05C221.335 25.1333 220.872 25.175 220.414 25.175C219.539 25.175 218.731 25.0292 217.989 24.7375C217.256 24.4375 216.618 24.0042 216.076 23.4375C215.543 22.8625 215.126 22.1542 214.826 21.3125C214.526 20.4708 214.376 19.5042 214.376 18.4125C214.376 17.5292 214.51 16.7042 214.776 15.9375C215.051 15.1708 215.443 14.5083 215.951 13.95C216.46 13.3833 217.081 12.9417 217.814 12.625C218.547 12.3 219.372 12.1375 220.289 12.1375C221.047 12.1375 221.747 12.2667 222.389 12.525C223.039 12.775 223.597 13.1417 224.064 13.625C224.539 14.1 224.91 14.6917 225.176 15.4C225.443 16.1 225.576 16.9 225.576 17.8C225.576 18.15 225.539 18.3833 225.464 18.5C225.389 18.6167 225.247 18.675 225.039 18.675H216.576C216.601 19.475 216.71 20.1708 216.901 20.7625C217.101 21.3542 217.376 21.85 217.726 22.25C218.076 22.6417 218.493 22.9375 218.976 23.1375C219.46 23.3292 220.001 23.425 220.601 23.425C221.16 23.425 221.639 23.3625 222.039 23.2375C222.447 23.1042 222.797 22.9625 223.089 22.8125C223.381 22.6625 223.622 22.525 223.814 22.4C224.014 22.2667 224.185 22.2 224.326 22.2C224.51 22.2 224.651 22.2708 224.751 22.4125L225.376 23.225ZM258.102 7.0875L252.514 25H250.339L245.802 11.3375C245.76 11.2042 245.718 11.0625 245.677 10.9125C245.643 10.7625 245.606 10.6042 245.564 10.4375C245.522 10.6042 245.481 10.7625 245.439 10.9125C245.397 11.0625 245.356 11.2042 245.314 11.3375L240.752 25H238.577L232.989 7.0875H235.002C235.218 7.0875 235.397 7.14167 235.539 7.25C235.689 7.35833 235.785 7.49583 235.827 7.6625L239.527 20.1125C239.585 20.3375 239.639 20.5792 239.689 20.8375C239.747 21.0958 239.802 21.3708 239.852 21.6625C239.91 21.3708 239.968 21.0958 240.027 20.8375C240.093 20.5708 240.164 20.3292 240.239 20.1125L244.452 7.6625C244.502 7.52083 244.597 7.39167 244.739 7.275C244.889 7.15 245.068 7.0875 245.277 7.0875H245.977C246.193 7.0875 246.368 7.14167 246.502 7.25C246.635 7.35833 246.735 7.49583 246.802 7.6625L251.002 20.1125C251.077 20.3292 251.143 20.5625 251.202 20.8125C251.268 21.0625 251.331 21.325 251.389 21.6C251.431 21.325 251.477 21.0625 251.527 20.8125C251.577 20.5625 251.631 20.3292 251.689 20.1125L255.402 7.6625C255.443 7.5125 255.535 7.37917 255.677 7.2625C255.827 7.14583 256.006 7.0875 256.214 7.0875H258.102ZM262.495 12.3375V25H260.27V12.3375H262.495ZM262.97 8.3625C262.97 8.57917 262.924 8.78333 262.833 8.975C262.749 9.15833 262.633 9.325 262.483 9.475C262.341 9.61667 262.17 9.72917 261.97 9.8125C261.779 9.89583 261.574 9.9375 261.358 9.9375C261.141 9.9375 260.937 9.89583 260.745 9.8125C260.562 9.72917 260.399 9.61667 260.258 9.475C260.116 9.325 260.004 9.15833 259.92 8.975C259.837 8.78333 259.795 8.57917 259.795 8.3625C259.795 8.14583 259.837 7.94167 259.92 7.75C260.004 7.55 260.116 7.37917 260.258 7.2375C260.399 7.0875 260.562 6.97083 260.745 6.8875C260.937 6.80417 261.141 6.7625 261.358 6.7625C261.574 6.7625 261.779 6.80417 261.97 6.8875C262.17 6.97083 262.341 7.0875 262.483 7.2375C262.633 7.37917 262.749 7.55 262.833 7.75C262.924 7.94167 262.97 8.14583 262.97 8.3625ZM270.039 25.2C269.039 25.2 268.268 24.9208 267.726 24.3625C267.193 23.8042 266.926 23 266.926 21.95V14.2H265.401C265.268 14.2 265.155 14.1625 265.064 14.0875C264.972 14.0042 264.926 13.8792 264.926 13.7125V12.825L267.001 12.5625L267.514 8.65C267.539 8.525 267.593 8.425 267.676 8.35C267.768 8.26667 267.885 8.225 268.026 8.225H269.151V12.5875H272.814V14.2H269.151V21.8C269.151 22.3333 269.28 22.7292 269.539 22.9875C269.797 23.2458 270.13 23.375 270.539 23.375C270.772 23.375 270.972 23.3458 271.139 23.2875C271.314 23.2208 271.464 23.15 271.589 23.075C271.714 23 271.818 22.9333 271.901 22.875C271.993 22.8083 272.072 22.775 272.139 22.775C272.255 22.775 272.36 22.8458 272.451 22.9875L273.101 24.05C272.718 24.4083 272.255 24.6917 271.714 24.9C271.172 25.1 270.614 25.2 270.039 25.2ZM277.349 14.025C277.89 13.45 278.49 12.9917 279.149 12.65C279.807 12.3083 280.565 12.1375 281.424 12.1375C282.115 12.1375 282.724 12.2542 283.249 12.4875C283.782 12.7125 284.224 13.0375 284.574 13.4625C284.932 13.8792 285.203 14.3833 285.386 14.975C285.569 15.5667 285.661 16.2208 285.661 16.9375V25H283.424V16.9375C283.424 15.9792 283.203 15.2375 282.761 14.7125C282.328 14.1792 281.665 13.9125 280.774 13.9125C280.115 13.9125 279.499 14.0708 278.924 14.3875C278.357 14.7042 277.832 15.1333 277.349 15.675V25H275.111V6.5875H277.349V14.025ZM318.844 7.0875L313.256 25H311.081L306.544 11.3375C306.502 11.2042 306.46 11.0625 306.419 10.9125C306.385 10.7625 306.348 10.6042 306.306 10.4375C306.265 10.6042 306.223 10.7625 306.181 10.9125C306.14 11.0625 306.098 11.2042 306.056 11.3375L301.494 25H299.319L293.731 7.0875H295.744C295.96 7.0875 296.14 7.14167 296.281 7.25C296.431 7.35833 296.527 7.49583 296.569 7.6625L300.269 20.1125C300.327 20.3375 300.381 20.5792 300.431 20.8375C300.49 21.0958 300.544 21.3708 300.594 21.6625C300.652 21.3708 300.71 21.0958 300.769 20.8375C300.835 20.5708 300.906 20.3292 300.981 20.1125L305.194 7.6625C305.244 7.52083 305.34 7.39167 305.481 7.275C305.631 7.15 305.81 7.0875 306.019 7.0875H306.719C306.935 7.0875 307.11 7.14167 307.244 7.25C307.377 7.35833 307.477 7.49583 307.544 7.6625L311.744 20.1125C311.819 20.3292 311.885 20.5625 311.944 20.8125C312.01 21.0625 312.073 21.325 312.131 21.6C312.173 21.325 312.219 21.0625 312.269 20.8125C312.319 20.5625 312.373 20.3292 312.431 20.1125L316.144 7.6625C316.185 7.5125 316.277 7.37917 316.419 7.2625C316.569 7.14583 316.748 7.0875 316.956 7.0875H318.844ZM324.907 12.1375C325.832 12.1375 326.665 12.2917 327.407 12.6C328.148 12.9083 328.782 13.3458 329.307 13.9125C329.832 14.4792 330.232 15.1667 330.507 15.975C330.79 16.775 330.932 17.6708 330.932 18.6625C330.932 19.6625 330.79 20.5625 330.507 21.3625C330.232 22.1625 329.832 22.8458 329.307 23.4125C328.782 23.9792 328.148 24.4167 327.407 24.725C326.665 25.025 325.832 25.175 324.907 25.175C323.973 25.175 323.132 25.025 322.382 24.725C321.64 24.4167 321.007 23.9792 320.482 23.4125C319.957 22.8458 319.552 22.1625 319.269 21.3625C318.994 20.5625 318.857 19.6625 318.857 18.6625C318.857 17.6708 318.994 16.775 319.269 15.975C319.552 15.1667 319.957 14.4792 320.482 13.9125C321.007 13.3458 321.64 12.9083 322.382 12.6C323.132 12.2917 323.973 12.1375 324.907 12.1375ZM324.907 23.4375C326.157 23.4375 327.09 23.0208 327.707 22.1875C328.323 21.3458 328.632 20.175 328.632 18.675C328.632 17.1667 328.323 15.9917 327.707 15.15C327.09 14.3083 326.157 13.8875 324.907 13.8875C324.273 13.8875 323.719 13.9958 323.244 14.2125C322.777 14.4292 322.386 14.7417 322.069 15.15C321.761 15.5583 321.527 16.0625 321.369 16.6625C321.219 17.2542 321.144 17.925 321.144 18.675C321.144 20.175 321.452 21.3458 322.069 22.1875C322.694 23.0208 323.64 23.4375 324.907 23.4375ZM335.866 14.875C336.266 14.0083 336.758 13.3333 337.341 12.85C337.925 12.3583 338.637 12.1125 339.479 12.1125C339.745 12.1125 340 12.1417 340.241 12.2C340.491 12.2583 340.712 12.35 340.904 12.475L340.741 14.1375C340.691 14.3458 340.566 14.45 340.366 14.45C340.25 14.45 340.079 14.425 339.854 14.375C339.629 14.325 339.375 14.3 339.091 14.3C338.691 14.3 338.333 14.3583 338.016 14.475C337.708 14.5917 337.429 14.7667 337.179 15C336.937 15.225 336.716 15.5083 336.516 15.85C336.325 16.1833 336.15 16.5667 335.991 17V25H333.754V12.3375H335.029C335.27 12.3375 335.437 12.3833 335.529 12.475C335.62 12.5667 335.683 12.725 335.716 12.95L335.866 14.875ZM345.16 6.5875V25H342.935V6.5875H345.16ZM357.018 15.35C356.602 14.7917 356.152 14.4042 355.668 14.1875C355.185 13.9625 354.643 13.85 354.043 13.85C352.868 13.85 351.964 14.2708 351.331 15.1125C350.698 15.9542 350.381 17.1542 350.381 18.7125C350.381 19.5375 350.452 20.2458 350.593 20.8375C350.735 21.4208 350.943 21.9042 351.218 22.2875C351.493 22.6625 351.831 22.9375 352.231 23.1125C352.631 23.2875 353.085 23.375 353.593 23.375C354.327 23.375 354.964 23.2083 355.506 22.875C356.056 22.5417 356.56 22.0708 357.018 21.4625V15.35ZM359.243 6.5875V25H357.918C357.602 25 357.402 24.8458 357.318 24.5375L357.118 23C356.577 23.65 355.96 24.175 355.268 24.575C354.577 24.975 353.777 25.175 352.868 25.175C352.143 25.175 351.485 25.0375 350.893 24.7625C350.302 24.4792 349.798 24.0667 349.381 23.525C348.964 22.9833 348.643 22.3083 348.418 21.5C348.193 20.6917 348.081 19.7625 348.081 18.7125C348.081 17.7792 348.206 16.9125 348.456 16.1125C348.706 15.3042 349.064 14.6042 349.531 14.0125C349.998 13.4208 350.568 12.9583 351.243 12.625C351.927 12.2833 352.693 12.1125 353.543 12.1125C354.318 12.1125 354.981 12.2458 355.531 12.5125C356.089 12.7708 356.585 13.1333 357.018 13.6V6.5875H359.243ZM364.295 5.8875C364.645 6.47917 364.883 7.10417 365.008 7.7625C365.133 8.42083 365.145 9.07083 365.045 9.7125C364.945 10.3542 364.737 10.9708 364.42 11.5625C364.103 12.1542 363.683 12.6792 363.158 13.1375L362.483 12.7C362.358 12.625 362.299 12.5292 362.308 12.4125C362.324 12.2875 362.366 12.1875 362.433 12.1125C362.649 11.8458 362.833 11.525 362.983 11.15C363.141 10.7667 363.241 10.3583 363.283 9.925C363.333 9.48333 363.312 9.02917 363.22 8.5625C363.137 8.09583 362.966 7.64583 362.708 7.2125C362.599 7.0375 362.566 6.88333 362.608 6.75C362.658 6.60833 362.762 6.50417 362.92 6.4375L364.295 5.8875ZM374.918 14.425C374.818 14.6083 374.664 14.7 374.455 14.7C374.33 14.7 374.189 14.6542 374.03 14.5625C373.872 14.4708 373.676 14.3708 373.443 14.2625C373.218 14.1458 372.947 14.0417 372.63 13.95C372.314 13.85 371.939 13.8 371.505 13.8C371.13 13.8 370.793 13.85 370.493 13.95C370.193 14.0417 369.934 14.1708 369.718 14.3375C369.509 14.5042 369.347 14.7 369.23 14.925C369.122 15.1417 369.068 15.3792 369.068 15.6375C369.068 15.9625 369.159 16.2333 369.343 16.45C369.534 16.6667 369.784 16.8542 370.093 17.0125C370.401 17.1708 370.751 17.3125 371.143 17.4375C371.534 17.5542 371.934 17.6833 372.343 17.825C372.759 17.9583 373.164 18.1083 373.555 18.275C373.947 18.4417 374.297 18.65 374.605 18.9C374.914 19.15 375.159 19.4583 375.343 19.825C375.534 20.1833 375.63 20.6167 375.63 21.125C375.63 21.7083 375.526 22.25 375.318 22.75C375.109 23.2417 374.801 23.6708 374.393 24.0375C373.984 24.3958 373.484 24.6792 372.893 24.8875C372.301 25.0958 371.618 25.2 370.843 25.2C369.959 25.2 369.159 25.0583 368.443 24.775C367.726 24.4833 367.118 24.1125 366.618 23.6625L367.143 22.8125C367.209 22.7042 367.289 22.6208 367.38 22.5625C367.472 22.5042 367.589 22.475 367.73 22.475C367.88 22.475 368.039 22.5333 368.205 22.65C368.372 22.7667 368.572 22.8958 368.805 23.0375C369.047 23.1792 369.339 23.3083 369.68 23.425C370.022 23.5417 370.447 23.6 370.955 23.6C371.389 23.6 371.768 23.5458 372.093 23.4375C372.418 23.3208 372.689 23.1667 372.905 22.975C373.122 22.7833 373.28 22.5625 373.38 22.3125C373.489 22.0625 373.543 21.7958 373.543 21.5125C373.543 21.1625 373.447 20.875 373.255 20.65C373.072 20.4167 372.826 20.2208 372.518 20.0625C372.209 19.8958 371.855 19.7542 371.455 19.6375C371.064 19.5125 370.659 19.3833 370.243 19.25C369.834 19.1167 369.43 18.9667 369.03 18.8C368.639 18.625 368.289 18.4083 367.98 18.15C367.672 17.8917 367.422 17.575 367.23 17.2C367.047 16.8167 366.955 16.3542 366.955 15.8125C366.955 15.3292 367.055 14.8667 367.255 14.425C367.455 13.975 367.747 13.5833 368.13 13.25C368.514 12.9083 368.984 12.6375 369.543 12.4375C370.101 12.2375 370.739 12.1375 371.455 12.1375C372.289 12.1375 373.034 12.2708 373.693 12.5375C374.359 12.7958 374.934 13.1542 375.418 13.6125L374.918 14.425ZM403.917 7.0875V25H401.792V11.8375C401.792 11.6625 401.796 11.475 401.805 11.275C401.821 11.075 401.838 10.8708 401.855 10.6625L395.705 21.8625C395.513 22.2375 395.221 22.425 394.83 22.425H394.48C394.088 22.425 393.796 22.2375 393.605 21.8625L387.33 10.6125C387.38 11.0542 387.405 11.4625 387.405 11.8375V25H385.28V7.0875H387.067C387.284 7.0875 387.451 7.10833 387.567 7.15C387.684 7.19167 387.796 7.30833 387.905 7.5L394.092 18.525C394.192 18.725 394.288 18.9333 394.38 19.15C394.48 19.3667 394.571 19.5875 394.655 19.8125C394.738 19.5875 394.826 19.3667 394.917 19.15C395.009 18.925 395.109 18.7125 395.217 18.5125L401.292 7.5C401.392 7.30833 401.501 7.19167 401.617 7.15C401.742 7.10833 401.913 7.0875 402.13 7.0875H403.917ZM412.919 12.1375C413.844 12.1375 414.678 12.2917 415.419 12.6C416.161 12.9083 416.794 13.3458 417.319 13.9125C417.844 14.4792 418.244 15.1667 418.519 15.975C418.803 16.775 418.944 17.6708 418.944 18.6625C418.944 19.6625 418.803 20.5625 418.519 21.3625C418.244 22.1625 417.844 22.8458 417.319 23.4125C416.794 23.9792 416.161 24.4167 415.419 24.725C414.678 25.025 413.844 25.175 412.919 25.175C411.986 25.175 411.144 25.025 410.394 24.725C409.653 24.4167 409.019 23.9792 408.494 23.4125C407.969 22.8458 407.565 22.1625 407.282 21.3625C407.007 20.5625 406.869 19.6625 406.869 18.6625C406.869 17.6708 407.007 16.775 407.282 15.975C407.565 15.1667 407.969 14.4792 408.494 13.9125C409.019 13.3458 409.653 12.9083 410.394 12.6C411.144 12.2917 411.986 12.1375 412.919 12.1375ZM412.919 23.4375C414.169 23.4375 415.103 23.0208 415.719 22.1875C416.336 21.3458 416.644 20.175 416.644 18.675C416.644 17.1667 416.336 15.9917 415.719 15.15C415.103 14.3083 414.169 13.8875 412.919 13.8875C412.286 13.8875 411.732 13.9958 411.257 14.2125C410.79 14.4292 410.399 14.7417 410.082 15.15C409.774 15.5583 409.54 16.0625 409.382 16.6625C409.232 17.2542 409.157 17.925 409.157 18.675C409.157 20.175 409.465 21.3458 410.082 22.1875C410.707 23.0208 411.653 23.4375 412.919 23.4375ZM429.141 14.425C429.041 14.6083 428.887 14.7 428.679 14.7C428.554 14.7 428.412 14.6542 428.254 14.5625C428.096 14.4708 427.9 14.3708 427.666 14.2625C427.441 14.1458 427.171 14.0417 426.854 13.95C426.537 13.85 426.162 13.8 425.729 13.8C425.354 13.8 425.016 13.85 424.716 13.95C424.416 14.0417 424.158 14.1708 423.941 14.3375C423.733 14.5042 423.571 14.7 423.454 14.925C423.346 15.1417 423.291 15.3792 423.291 15.6375C423.291 15.9625 423.383 16.2333 423.566 16.45C423.758 16.6667 424.008 16.8542 424.316 17.0125C424.625 17.1708 424.975 17.3125 425.366 17.4375C425.758 17.5542 426.158 17.6833 426.566 17.825C426.983 17.9583 427.387 18.1083 427.779 18.275C428.171 18.4417 428.521 18.65 428.829 18.9C429.137 19.15 429.383 19.4583 429.566 19.825C429.758 20.1833 429.854 20.6167 429.854 21.125C429.854 21.7083 429.75 22.25 429.541 22.75C429.333 23.2417 429.025 23.6708 428.616 24.0375C428.208 24.3958 427.708 24.6792 427.116 24.8875C426.525 25.0958 425.841 25.2 425.066 25.2C424.183 25.2 423.383 25.0583 422.666 24.775C421.95 24.4833 421.341 24.1125 420.841 23.6625L421.366 22.8125C421.433 22.7042 421.512 22.6208 421.604 22.5625C421.696 22.5042 421.812 22.475 421.954 22.475C422.104 22.475 422.262 22.5333 422.429 22.65C422.596 22.7667 422.796 22.8958 423.029 23.0375C423.271 23.1792 423.562 23.3083 423.904 23.425C424.246 23.5417 424.671 23.6 425.179 23.6C425.612 23.6 425.991 23.5458 426.316 23.4375C426.641 23.3208 426.912 23.1667 427.129 22.975C427.346 22.7833 427.504 22.5625 427.604 22.3125C427.712 22.0625 427.766 21.7958 427.766 21.5125C427.766 21.1625 427.671 20.875 427.479 20.65C427.296 20.4167 427.05 20.2208 426.741 20.0625C426.433 19.8958 426.079 19.7542 425.679 19.6375C425.287 19.5125 424.883 19.3833 424.466 19.25C424.058 19.1167 423.654 18.9667 423.254 18.8C422.862 18.625 422.512 18.4083 422.204 18.15C421.896 17.8917 421.646 17.575 421.454 17.2C421.271 16.8167 421.179 16.3542 421.179 15.8125C421.179 15.3292 421.279 14.8667 421.479 14.425C421.679 13.975 421.971 13.5833 422.354 13.25C422.737 12.9083 423.208 12.6375 423.766 12.4375C424.325 12.2375 424.962 12.1375 425.679 12.1375C426.512 12.1375 427.258 12.2708 427.916 12.5375C428.583 12.7958 429.158 13.1542 429.641 13.6125L429.141 14.425ZM436.469 25.2C435.469 25.2 434.699 24.9208 434.157 24.3625C433.624 23.8042 433.357 23 433.357 21.95V14.2H431.832C431.699 14.2 431.586 14.1625 431.494 14.0875C431.403 14.0042 431.357 13.8792 431.357 13.7125V12.825L433.432 12.5625L433.944 8.65C433.969 8.525 434.024 8.425 434.107 8.35C434.199 8.26667 434.315 8.225 434.457 8.225H435.582V12.5875H439.244V14.2H435.582V21.8C435.582 22.3333 435.711 22.7292 435.969 22.9875C436.228 23.2458 436.561 23.375 436.969 23.375C437.203 23.375 437.403 23.3458 437.569 23.2875C437.744 23.2208 437.894 23.15 438.019 23.075C438.144 23 438.249 22.9333 438.332 22.875C438.424 22.8083 438.503 22.775 438.569 22.775C438.686 22.775 438.79 22.8458 438.882 22.9875L439.532 24.05C439.149 24.4083 438.686 24.6917 438.144 24.9C437.603 25.1 437.044 25.2 436.469 25.2ZM459.819 9.125H454.019V25H451.606V9.125H445.794V7.0875H459.819V9.125ZM461.306 14.875C461.706 14.0083 462.197 13.3333 462.781 12.85C463.364 12.3583 464.076 12.1125 464.918 12.1125C465.185 12.1125 465.439 12.1417 465.681 12.2C465.931 12.2583 466.151 12.35 466.343 12.475L466.181 14.1375C466.131 14.3458 466.006 14.45 465.806 14.45C465.689 14.45 465.518 14.425 465.293 14.375C465.068 14.325 464.814 14.3 464.531 14.3C464.131 14.3 463.772 14.3583 463.456 14.475C463.147 14.5917 462.868 14.7667 462.618 15C462.376 15.225 462.156 15.5083 461.956 15.85C461.764 16.1833 461.589 16.5667 461.431 17V25H459.193V12.3375H460.468C460.71 12.3375 460.876 12.3833 460.968 12.475C461.06 12.5667 461.122 12.725 461.156 12.95L461.306 14.875ZM478.712 12.3375V25H477.387C477.07 25 476.87 24.8458 476.787 24.5375L476.612 23.175C476.062 23.7833 475.445 24.275 474.762 24.65C474.079 25.0167 473.295 25.2 472.412 25.2C471.72 25.2 471.108 25.0875 470.575 24.8625C470.05 24.6292 469.608 24.3042 469.25 23.8875C468.891 23.4708 468.62 22.9667 468.437 22.375C468.262 21.7833 468.175 21.1292 468.175 20.4125V12.3375H470.4V20.4125C470.4 21.3708 470.616 22.1125 471.05 22.6375C471.491 23.1625 472.162 23.425 473.062 23.425C473.72 23.425 474.333 23.2708 474.9 22.9625C475.475 22.6458 476.004 22.2125 476.487 21.6625V12.3375H478.712ZM489.615 14.425C489.515 14.6083 489.361 14.7 489.153 14.7C489.028 14.7 488.886 14.6542 488.728 14.5625C488.569 14.4708 488.373 14.3708 488.14 14.2625C487.915 14.1458 487.644 14.0417 487.328 13.95C487.011 13.85 486.636 13.8 486.203 13.8C485.828 13.8 485.49 13.85 485.19 13.95C484.89 14.0417 484.632 14.1708 484.415 14.3375C484.207 14.5042 484.044 14.7 483.928 14.925C483.819 15.1417 483.765 15.3792 483.765 15.6375C483.765 15.9625 483.857 16.2333 484.04 16.45C484.232 16.6667 484.482 16.8542 484.79 17.0125C485.098 17.1708 485.448 17.3125 485.84 17.4375C486.232 17.5542 486.632 17.6833 487.04 17.825C487.457 17.9583 487.861 18.1083 488.253 18.275C488.644 18.4417 488.994 18.65 489.303 18.9C489.611 19.15 489.857 19.4583 490.04 19.825C490.232 20.1833 490.328 20.6167 490.328 21.125C490.328 21.7083 490.223 22.25 490.015 22.75C489.807 23.2417 489.498 23.6708 489.09 24.0375C488.682 24.3958 488.182 24.6792 487.59 24.8875C486.998 25.0958 486.315 25.2 485.54 25.2C484.657 25.2 483.857 25.0583 483.14 24.775C482.423 24.4833 481.815 24.1125 481.315 23.6625L481.84 22.8125C481.907 22.7042 481.986 22.6208 482.078 22.5625C482.169 22.5042 482.286 22.475 482.428 22.475C482.578 22.475 482.736 22.5333 482.903 22.65C483.069 22.7667 483.269 22.8958 483.503 23.0375C483.744 23.1792 484.036 23.3083 484.378 23.425C484.719 23.5417 485.144 23.6 485.653 23.6C486.086 23.6 486.465 23.5458 486.79 23.4375C487.115 23.3208 487.386 23.1667 487.603 22.975C487.819 22.7833 487.978 22.5625 488.078 22.3125C488.186 22.0625 488.24 21.7958 488.24 21.5125C488.24 21.1625 488.144 20.875 487.953 20.65C487.769 20.4167 487.523 20.2208 487.215 20.0625C486.907 19.8958 486.553 19.7542 486.153 19.6375C485.761 19.5125 485.357 19.3833 484.94 19.25C484.532 19.1167 484.128 18.9667 483.728 18.8C483.336 18.625 482.986 18.4083 482.678 18.15C482.369 17.8917 482.119 17.575 481.928 17.2C481.744 16.8167 481.653 16.3542 481.653 15.8125C481.653 15.3292 481.753 14.8667 481.953 14.425C482.153 13.975 482.444 13.5833 482.828 13.25C483.211 12.9083 483.682 12.6375 484.24 12.4375C484.798 12.2375 485.436 12.1375 486.153 12.1375C486.986 12.1375 487.732 12.2708 488.39 12.5375C489.057 12.7958 489.632 13.1542 490.115 13.6125L489.615 14.425ZM496.943 25.2C495.943 25.2 495.172 24.9208 494.63 24.3625C494.097 23.8042 493.83 23 493.83 21.95V14.2H492.305C492.172 14.2 492.06 14.1625 491.968 14.0875C491.876 14.0042 491.83 13.8792 491.83 13.7125V12.825L493.905 12.5625L494.418 8.65C494.443 8.525 494.497 8.425 494.58 8.35C494.672 8.26667 494.789 8.225 494.93 8.225H496.055V12.5875H499.718V14.2H496.055V21.8C496.055 22.3333 496.185 22.7292 496.443 22.9875C496.701 23.2458 497.035 23.375 497.443 23.375C497.676 23.375 497.876 23.3458 498.043 23.2875C498.218 23.2208 498.368 23.15 498.493 23.075C498.618 23 498.722 22.9333 498.805 22.875C498.897 22.8083 498.976 22.775 499.043 22.775C499.16 22.775 499.264 22.8458 499.355 22.9875L500.005 24.05C499.622 24.4083 499.16 24.6917 498.618 24.9C498.076 25.1 497.518 25.2 496.943 25.2ZM510.417 17.2875C510.417 16.7708 510.342 16.3 510.192 15.875C510.051 15.4417 509.838 15.0708 509.555 14.7625C509.28 14.4458 508.942 14.2042 508.542 14.0375C508.142 13.8625 507.688 13.775 507.18 13.775C506.113 13.775 505.267 14.0875 504.642 14.7125C504.026 15.3292 503.642 16.1875 503.492 17.2875H510.417ZM512.217 23.225C511.942 23.5583 511.613 23.85 511.23 24.1C510.846 24.3417 510.434 24.5417 509.992 24.7C509.559 24.8583 509.109 24.975 508.642 25.05C508.176 25.1333 507.713 25.175 507.255 25.175C506.38 25.175 505.571 25.0292 504.83 24.7375C504.096 24.4375 503.459 24.0042 502.917 23.4375C502.384 22.8625 501.967 22.1542 501.667 21.3125C501.367 20.4708 501.217 19.5042 501.217 18.4125C501.217 17.5292 501.351 16.7042 501.617 15.9375C501.892 15.1708 502.284 14.5083 502.792 13.95C503.301 13.3833 503.921 12.9417 504.655 12.625C505.388 12.3 506.213 12.1375 507.13 12.1375C507.888 12.1375 508.588 12.2667 509.23 12.525C509.88 12.775 510.438 13.1417 510.905 13.625C511.38 14.1 511.751 14.6917 512.017 15.4C512.284 16.1 512.417 16.9 512.417 17.8C512.417 18.15 512.38 18.3833 512.305 18.5C512.23 18.6167 512.088 18.675 511.88 18.675H503.417C503.442 19.475 503.551 20.1708 503.742 20.7625C503.942 21.3542 504.217 21.85 504.567 22.25C504.917 22.6417 505.334 22.9375 505.817 23.1375C506.301 23.3292 506.842 23.425 507.442 23.425C508.001 23.425 508.48 23.3625 508.88 23.2375C509.288 23.1042 509.638 22.9625 509.93 22.8125C510.221 22.6625 510.463 22.525 510.655 22.4C510.855 22.2667 511.026 22.2 511.167 22.2C511.351 22.2 511.492 22.2708 511.592 22.4125L512.217 23.225ZM523.4 15.35C522.984 14.7917 522.534 14.4042 522.05 14.1875C521.567 13.9625 521.025 13.85 520.425 13.85C519.25 13.85 518.346 14.2708 517.713 15.1125C517.079 15.9542 516.763 17.1542 516.763 18.7125C516.763 19.5375 516.834 20.2458 516.975 20.8375C517.117 21.4208 517.325 21.9042 517.6 22.2875C517.875 22.6625 518.213 22.9375 518.613 23.1125C519.013 23.2875 519.467 23.375 519.975 23.375C520.709 23.375 521.346 23.2083 521.888 22.875C522.438 22.5417 522.942 22.0708 523.4 21.4625V15.35ZM525.625 6.5875V25H524.3C523.984 25 523.784 24.8458 523.7 24.5375L523.5 23C522.959 23.65 522.342 24.175 521.65 24.575C520.959 24.975 520.159 25.175 519.25 25.175C518.525 25.175 517.867 25.0375 517.275 24.7625C516.684 24.4792 516.179 24.0667 515.763 23.525C515.346 22.9833 515.025 22.3083 514.8 21.5C514.575 20.6917 514.463 19.7625 514.463 18.7125C514.463 17.7792 514.588 16.9125 514.838 16.1125C515.088 15.3042 515.446 14.6042 515.913 14.0125C516.379 13.4208 516.95 12.9583 517.625 12.625C518.309 12.2833 519.075 12.1125 519.925 12.1125C520.7 12.1125 521.363 12.2458 521.913 12.5125C522.471 12.7708 522.967 13.1333 523.4 13.6V6.5875H525.625ZM544.743 18.35L541.931 11.0625C541.848 10.8458 541.76 10.5958 541.668 10.3125C541.577 10.0208 541.489 9.7125 541.406 9.3875C541.231 10.0625 541.052 10.625 540.868 11.075L538.056 18.35H544.743ZM549.793 25H547.918C547.702 25 547.527 24.9458 547.393 24.8375C547.26 24.7292 547.16 24.5917 547.093 24.425L545.418 20.1H537.381L535.706 24.425C535.656 24.575 535.56 24.7083 535.418 24.825C535.277 24.9417 535.102 25 534.893 25H533.018L540.181 7.0875H542.631L549.793 25ZM553.676 14.175C553.951 13.8667 554.243 13.5875 554.551 13.3375C554.859 13.0875 555.184 12.875 555.526 12.7C555.876 12.5167 556.243 12.3792 556.626 12.2875C557.018 12.1875 557.438 12.1375 557.888 12.1375C558.58 12.1375 559.188 12.2542 559.713 12.4875C560.247 12.7125 560.688 13.0375 561.038 13.4625C561.397 13.8792 561.668 14.3833 561.851 14.975C562.034 15.5667 562.126 16.2208 562.126 16.9375V25H559.888V16.9375C559.888 15.9792 559.668 15.2375 559.226 14.7125C558.793 14.1792 558.13 13.9125 557.238 13.9125C556.58 13.9125 555.963 14.0708 555.388 14.3875C554.822 14.7042 554.297 15.1333 553.813 15.675V25H551.576V12.3375H552.913C553.23 12.3375 553.426 12.4917 553.501 12.8L553.676 14.175ZM573.766 15.35C573.35 14.7917 572.9 14.4042 572.416 14.1875C571.933 13.9625 571.391 13.85 570.791 13.85C569.616 13.85 568.712 14.2708 568.079 15.1125C567.446 15.9542 567.129 17.1542 567.129 18.7125C567.129 19.5375 567.2 20.2458 567.341 20.8375C567.483 21.4208 567.691 21.9042 567.966 22.2875C568.241 22.6625 568.579 22.9375 568.979 23.1125C569.379 23.2875 569.833 23.375 570.341 23.375C571.075 23.375 571.712 23.2083 572.254 22.875C572.804 22.5417 573.308 22.0708 573.766 21.4625V15.35ZM575.991 6.5875V25H574.666C574.35 25 574.15 24.8458 574.066 24.5375L573.866 23C573.325 23.65 572.708 24.175 572.016 24.575C571.325 24.975 570.525 25.175 569.616 25.175C568.891 25.175 568.233 25.0375 567.641 24.7625C567.05 24.4792 566.546 24.0667 566.129 23.525C565.712 22.9833 565.391 22.3083 565.166 21.5C564.941 20.6917 564.829 19.7625 564.829 18.7125C564.829 17.7792 564.954 16.9125 565.204 16.1125C565.454 15.3042 565.812 14.6042 566.279 14.0125C566.746 13.4208 567.316 12.9583 567.991 12.625C568.675 12.2833 569.441 12.1125 570.291 12.1125C571.066 12.1125 571.729 12.2458 572.279 12.5125C572.837 12.7708 573.333 13.1333 573.766 13.6V6.5875H575.991ZM588.852 9.0625V15.325H596.215V17.3H588.852V25H586.427V7.0875H597.465V9.0625H588.852ZM605.118 19.3C604.093 19.3333 603.218 19.4167 602.493 19.55C601.776 19.675 601.189 19.8417 600.731 20.05C600.281 20.2583 599.951 20.5042 599.743 20.7875C599.543 21.0708 599.443 21.3875 599.443 21.7375C599.443 22.0708 599.497 22.3583 599.606 22.6C599.714 22.8417 599.86 23.0417 600.043 23.2C600.235 23.35 600.456 23.4625 600.706 23.5375C600.964 23.6042 601.239 23.6375 601.531 23.6375C601.922 23.6375 602.281 23.6 602.606 23.525C602.931 23.4417 603.235 23.325 603.518 23.175C603.81 23.025 604.085 22.8458 604.343 22.6375C604.61 22.4292 604.868 22.1917 605.118 21.925V19.3ZM597.931 14.125C598.631 13.45 599.385 12.9458 600.193 12.6125C601.001 12.2792 601.897 12.1125 602.881 12.1125C603.589 12.1125 604.218 12.2292 604.768 12.4625C605.318 12.6958 605.781 13.0208 606.156 13.4375C606.531 13.8542 606.814 14.3583 607.006 14.95C607.197 15.5417 607.293 16.1917 607.293 16.9V25H606.306C606.089 25 605.922 24.9667 605.806 24.9C605.689 24.825 605.597 24.6833 605.531 24.475L605.281 23.275C604.947 23.5833 604.622 23.8583 604.306 24.1C603.989 24.3333 603.656 24.5333 603.306 24.7C602.956 24.8583 602.581 24.9792 602.181 25.0625C601.789 25.1542 601.351 25.2 600.868 25.2C600.376 25.2 599.914 25.1333 599.481 25C599.047 24.8583 598.668 24.65 598.343 24.375C598.026 24.1 597.772 23.7542 597.581 23.3375C597.397 22.9125 597.306 22.4125 597.306 21.8375C597.306 21.3375 597.443 20.8583 597.718 20.4C597.993 19.9333 598.439 19.5208 599.056 19.1625C599.672 18.8042 600.476 18.5125 601.468 18.2875C602.46 18.0542 603.676 17.9208 605.118 17.8875V16.9C605.118 15.9167 604.906 15.175 604.481 14.675C604.056 14.1667 603.435 13.9125 602.618 13.9125C602.068 13.9125 601.606 13.9833 601.231 14.125C600.864 14.2583 600.543 14.4125 600.268 14.5875C600.001 14.7542 599.768 14.9083 599.568 15.05C599.376 15.1833 599.185 15.25 598.993 15.25C598.843 15.25 598.714 15.2125 598.606 15.1375C598.497 15.0542 598.406 14.9542 598.331 14.8375L597.931 14.125ZM618.057 14.425C617.957 14.6083 617.803 14.7 617.595 14.7C617.47 14.7 617.328 14.6542 617.17 14.5625C617.012 14.4708 616.816 14.3708 616.582 14.2625C616.357 14.1458 616.087 14.0417 615.77 13.95C615.453 13.85 615.078 13.8 614.645 13.8C614.27 13.8 613.932 13.85 613.632 13.95C613.332 14.0417 613.074 14.1708 612.857 14.3375C612.649 14.5042 612.487 14.7 612.37 14.925C612.262 15.1417 612.207 15.3792 612.207 15.6375C612.207 15.9625 612.299 16.2333 612.482 16.45C612.674 16.6667 612.924 16.8542 613.232 17.0125C613.541 17.1708 613.891 17.3125 614.282 17.4375C614.674 17.5542 615.074 17.6833 615.482 17.825C615.899 17.9583 616.303 18.1083 616.695 18.275C617.087 18.4417 617.437 18.65 617.745 18.9C618.053 19.15 618.299 19.4583 618.482 19.825C618.674 20.1833 618.77 20.6167 618.77 21.125C618.77 21.7083 618.666 22.25 618.457 22.75C618.249 23.2417 617.941 23.6708 617.532 24.0375C617.124 24.3958 616.624 24.6792 616.032 24.8875C615.441 25.0958 614.757 25.2 613.982 25.2C613.099 25.2 612.299 25.0583 611.582 24.775C610.866 24.4833 610.257 24.1125 609.757 23.6625L610.282 22.8125C610.349 22.7042 610.428 22.6208 610.52 22.5625C610.612 22.5042 610.728 22.475 610.87 22.475C611.02 22.475 611.178 22.5333 611.345 22.65C611.512 22.7667 611.712 22.8958 611.945 23.0375C612.187 23.1792 612.478 23.3083 612.82 23.425C613.162 23.5417 613.587 23.6 614.095 23.6C614.528 23.6 614.907 23.5458 615.232 23.4375C615.557 23.3208 615.828 23.1667 616.045 22.975C616.262 22.7833 616.42 22.5625 616.52 22.3125C616.628 22.0625 616.682 21.7958 616.682 21.5125C616.682 21.1625 616.587 20.875 616.395 20.65C616.212 20.4167 615.966 20.2208 615.657 20.0625C615.349 19.8958 614.995 19.7542 614.595 19.6375C614.203 19.5125 613.799 19.3833 613.382 19.25C612.974 19.1167 612.57 18.9667 612.17 18.8C611.778 18.625 611.428 18.4083 611.12 18.15C610.812 17.8917 610.562 17.575 610.37 17.2C610.187 16.8167 610.095 16.3542 610.095 15.8125C610.095 15.3292 610.195 14.8667 610.395 14.425C610.595 13.975 610.887 13.5833 611.27 13.25C611.653 12.9083 612.124 12.6375 612.682 12.4375C613.241 12.2375 613.878 12.1375 614.595 12.1375C615.428 12.1375 616.174 12.2708 616.832 12.5375C617.499 12.7958 618.074 13.1542 618.557 13.6125L618.057 14.425ZM625.385 25.2C624.385 25.2 623.615 24.9208 623.073 24.3625C622.54 23.8042 622.273 23 622.273 21.95V14.2H620.748C620.615 14.2 620.502 14.1625 620.41 14.0875C620.319 14.0042 620.273 13.8792 620.273 13.7125V12.825L622.348 12.5625L622.86 8.65C622.885 8.525 622.94 8.425 623.023 8.35C623.115 8.26667 623.231 8.225 623.373 8.225H624.498V12.5875H628.16V14.2H624.498V21.8C624.498 22.3333 624.627 22.7292 624.885 22.9875C625.144 23.2458 625.477 23.375 625.885 23.375C626.119 23.375 626.319 23.3458 626.485 23.2875C626.66 23.2208 626.81 23.15 626.935 23.075C627.06 23 627.165 22.9333 627.248 22.875C627.34 22.8083 627.419 22.775 627.485 22.775C627.602 22.775 627.706 22.8458 627.798 22.9875L628.448 24.05C628.065 24.4083 627.602 24.6917 627.06 24.9C626.519 25.1 625.96 25.2 625.385 25.2ZM638.86 17.2875C638.86 16.7708 638.785 16.3 638.635 15.875C638.493 15.4417 638.28 15.0708 637.997 14.7625C637.722 14.4458 637.385 14.2042 636.985 14.0375C636.585 13.8625 636.13 13.775 635.622 13.775C634.555 13.775 633.71 14.0875 633.085 14.7125C632.468 15.3292 632.085 16.1875 631.935 17.2875H638.86ZM640.66 23.225C640.385 23.5583 640.055 23.85 639.672 24.1C639.289 24.3417 638.876 24.5417 638.435 24.7C638.001 24.8583 637.551 24.975 637.085 25.05C636.618 25.1333 636.155 25.175 635.697 25.175C634.822 25.175 634.014 25.0292 633.272 24.7375C632.539 24.4375 631.901 24.0042 631.36 23.4375C630.826 22.8625 630.41 22.1542 630.11 21.3125C629.81 20.4708 629.66 19.5042 629.66 18.4125C629.66 17.5292 629.793 16.7042 630.06 15.9375C630.335 15.1708 630.726 14.5083 631.235 13.95C631.743 13.3833 632.364 12.9417 633.097 12.625C633.83 12.3 634.655 12.1375 635.572 12.1375C636.33 12.1375 637.03 12.2667 637.672 12.525C638.322 12.775 638.88 13.1417 639.347 13.625C639.822 14.1 640.193 14.6917 640.46 15.4C640.726 16.1 640.86 16.9 640.86 17.8C640.86 18.15 640.822 18.3833 640.747 18.5C640.672 18.6167 640.53 18.675 640.322 18.675H631.86C631.885 19.475 631.993 20.1708 632.185 20.7625C632.385 21.3542 632.66 21.85 633.01 22.25C633.36 22.6417 633.776 22.9375 634.26 23.1375C634.743 23.3292 635.285 23.425 635.885 23.425C636.443 23.425 636.922 23.3625 637.322 23.2375C637.73 23.1042 638.08 22.9625 638.372 22.8125C638.664 22.6625 638.905 22.525 639.097 22.4C639.297 22.2667 639.468 22.2 639.61 22.2C639.793 22.2 639.935 22.2708 640.035 22.4125L640.66 23.225ZM650.968 14.425C650.868 14.6083 650.713 14.7 650.505 14.7C650.38 14.7 650.238 14.6542 650.08 14.5625C649.922 14.4708 649.726 14.3708 649.493 14.2625C649.268 14.1458 648.997 14.0417 648.68 13.95C648.363 13.85 647.988 13.8 647.555 13.8C647.18 13.8 646.843 13.85 646.543 13.95C646.243 14.0417 645.984 14.1708 645.768 14.3375C645.559 14.5042 645.397 14.7 645.28 14.925C645.172 15.1417 645.118 15.3792 645.118 15.6375C645.118 15.9625 645.209 16.2333 645.393 16.45C645.584 16.6667 645.834 16.8542 646.143 17.0125C646.451 17.1708 646.801 17.3125 647.193 17.4375C647.584 17.5542 647.984 17.6833 648.393 17.825C648.809 17.9583 649.213 18.1083 649.605 18.275C649.997 18.4417 650.347 18.65 650.655 18.9C650.963 19.15 651.209 19.4583 651.393 19.825C651.584 20.1833 651.68 20.6167 651.68 21.125C651.68 21.7083 651.576 22.25 651.368 22.75C651.159 23.2417 650.851 23.6708 650.443 24.0375C650.034 24.3958 649.534 24.6792 648.943 24.8875C648.351 25.0958 647.668 25.2 646.893 25.2C646.009 25.2 645.209 25.0583 644.493 24.775C643.776 24.4833 643.168 24.1125 642.668 23.6625L643.193 22.8125C643.259 22.7042 643.338 22.6208 643.43 22.5625C643.522 22.5042 643.638 22.475 643.78 22.475C643.93 22.475 644.088 22.5333 644.255 22.65C644.422 22.7667 644.622 22.8958 644.855 23.0375C645.097 23.1792 645.388 23.3083 645.73 23.425C646.072 23.5417 646.497 23.6 647.005 23.6C647.438 23.6 647.818 23.5458 648.143 23.4375C648.468 23.3208 648.738 23.1667 648.955 22.975C649.172 22.7833 649.33 22.5625 649.43 22.3125C649.538 22.0625 649.593 21.7958 649.593 21.5125C649.593 21.1625 649.497 20.875 649.305 20.65C649.122 20.4167 648.876 20.2208 648.568 20.0625C648.259 19.8958 647.905 19.7542 647.505 19.6375C647.113 19.5125 646.709 19.3833 646.293 19.25C645.884 19.1167 645.48 18.9667 645.08 18.8C644.688 18.625 644.338 18.4083 644.03 18.15C643.722 17.8917 643.472 17.575 643.28 17.2C643.097 16.8167 643.005 16.3542 643.005 15.8125C643.005 15.3292 643.105 14.8667 643.305 14.425C643.505 13.975 643.797 13.5833 644.18 13.25C644.563 12.9083 645.034 12.6375 645.593 12.4375C646.151 12.2375 646.788 12.1375 647.505 12.1375C648.338 12.1375 649.084 12.2708 649.743 12.5375C650.409 12.7958 650.984 13.1542 651.468 13.6125L650.968 14.425ZM658.296 25.2C657.296 25.2 656.525 24.9208 655.983 24.3625C655.45 23.8042 655.183 23 655.183 21.95V14.2H653.658C653.525 14.2 653.412 14.1625 653.321 14.0875C653.229 14.0042 653.183 13.8792 653.183 13.7125V12.825L655.258 12.5625L655.771 8.65C655.796 8.525 655.85 8.425 655.933 8.35C656.025 8.26667 656.141 8.225 656.283 8.225H657.408V12.5875H661.071V14.2H657.408V21.8C657.408 22.3333 657.537 22.7292 657.796 22.9875C658.054 23.2458 658.387 23.375 658.796 23.375C659.029 23.375 659.229 23.3458 659.396 23.2875C659.571 23.2208 659.721 23.15 659.846 23.075C659.971 23 660.075 22.9333 660.158 22.875C660.25 22.8083 660.329 22.775 660.396 22.775C660.512 22.775 660.616 22.8458 660.708 22.9875L661.358 24.05C660.975 24.4083 660.512 24.6917 659.971 24.9C659.429 25.1 658.871 25.2 658.296 25.2ZM693.16 7.0875L687.573 25H685.398L680.86 11.3375C680.818 11.2042 680.777 11.0625 680.735 10.9125C680.702 10.7625 680.664 10.6042 680.623 10.4375C680.581 10.6042 680.539 10.7625 680.498 10.9125C680.456 11.0625 680.414 11.2042 680.373 11.3375L675.81 25H673.635L668.048 7.0875H670.06C670.277 7.0875 670.456 7.14167 670.598 7.25C670.748 7.35833 670.843 7.49583 670.885 7.6625L674.585 20.1125C674.643 20.3375 674.698 20.5792 674.748 20.8375C674.806 21.0958 674.86 21.3708 674.91 21.6625C674.968 21.3708 675.027 21.0958 675.085 20.8375C675.152 20.5708 675.223 20.3292 675.298 20.1125L679.51 7.6625C679.56 7.52083 679.656 7.39167 679.798 7.275C679.948 7.15 680.127 7.0875 680.335 7.0875H681.035C681.252 7.0875 681.427 7.14167 681.56 7.25C681.693 7.35833 681.793 7.49583 681.86 7.6625L686.06 20.1125C686.135 20.3292 686.202 20.5625 686.26 20.8125C686.327 21.0625 686.389 21.325 686.448 21.6C686.489 21.325 686.535 21.0625 686.585 20.8125C686.635 20.5625 686.689 20.3292 686.748 20.1125L690.46 7.6625C690.502 7.5125 690.593 7.37917 690.735 7.2625C690.885 7.14583 691.064 7.0875 691.273 7.0875H693.16ZM700.748 19.3C699.723 19.3333 698.848 19.4167 698.123 19.55C697.406 19.675 696.819 19.8417 696.361 20.05C695.911 20.2583 695.581 20.5042 695.373 20.7875C695.173 21.0708 695.073 21.3875 695.073 21.7375C695.073 22.0708 695.127 22.3583 695.236 22.6C695.344 22.8417 695.49 23.0417 695.673 23.2C695.865 23.35 696.086 23.4625 696.336 23.5375C696.594 23.6042 696.869 23.6375 697.161 23.6375C697.552 23.6375 697.911 23.6 698.236 23.525C698.561 23.4417 698.865 23.325 699.148 23.175C699.44 23.025 699.715 22.8458 699.973 22.6375C700.24 22.4292 700.498 22.1917 700.748 21.925V19.3ZM693.561 14.125C694.261 13.45 695.015 12.9458 695.823 12.6125C696.631 12.2792 697.527 12.1125 698.511 12.1125C699.219 12.1125 699.848 12.2292 700.398 12.4625C700.948 12.6958 701.411 13.0208 701.786 13.4375C702.161 13.8542 702.444 14.3583 702.636 14.95C702.827 15.5417 702.923 16.1917 702.923 16.9V25H701.936C701.719 25 701.552 24.9667 701.436 24.9C701.319 24.825 701.227 24.6833 701.161 24.475L700.911 23.275C700.577 23.5833 700.252 23.8583 699.936 24.1C699.619 24.3333 699.286 24.5333 698.936 24.7C698.586 24.8583 698.211 24.9792 697.811 25.0625C697.419 25.1542 696.981 25.2 696.498 25.2C696.006 25.2 695.544 25.1333 695.111 25C694.677 24.8583 694.298 24.65 693.973 24.375C693.656 24.1 693.402 23.7542 693.211 23.3375C693.027 22.9125 692.936 22.4125 692.936 21.8375C692.936 21.3375 693.073 20.8583 693.348 20.4C693.623 19.9333 694.069 19.5208 694.686 19.1625C695.302 18.8042 696.106 18.5125 697.098 18.2875C698.09 18.0542 699.306 17.9208 700.748 17.8875V16.9C700.748 15.9167 700.536 15.175 700.111 14.675C699.686 14.1667 699.065 13.9125 698.248 13.9125C697.698 13.9125 697.236 13.9833 696.861 14.125C696.494 14.2583 696.173 14.4125 695.898 14.5875C695.631 14.7542 695.398 14.9083 695.198 15.05C695.006 15.1833 694.815 15.25 694.623 15.25C694.473 15.25 694.344 15.2125 694.236 15.1375C694.127 15.0542 694.036 14.9542 693.961 14.8375L693.561 14.125ZM708.612 6.5875V25H706.387V6.5875H708.612ZM714.521 6.5875V25H712.296V6.5875H714.521ZM726.604 17.2875C726.604 16.7708 726.529 16.3 726.379 15.875C726.237 15.4417 726.025 15.0708 725.741 14.7625C725.466 14.4458 725.129 14.2042 724.729 14.0375C724.329 13.8625 723.875 13.775 723.366 13.775C722.3 13.775 721.454 14.0875 720.829 14.7125C720.212 15.3292 719.829 16.1875 719.679 17.2875H726.604ZM728.404 23.225C728.129 23.5583 727.8 23.85 727.416 24.1C727.033 24.3417 726.62 24.5417 726.179 24.7C725.745 24.8583 725.295 24.975 724.829 25.05C724.362 25.1333 723.9 25.175 723.441 25.175C722.566 25.175 721.758 25.0292 721.016 24.7375C720.283 24.4375 719.645 24.0042 719.104 23.4375C718.57 22.8625 718.154 22.1542 717.854 21.3125C717.554 20.4708 717.404 19.5042 717.404 18.4125C717.404 17.5292 717.537 16.7042 717.804 15.9375C718.079 15.1708 718.47 14.5083 718.979 13.95C719.487 13.3833 720.108 12.9417 720.841 12.625C721.575 12.3 722.4 12.1375 723.316 12.1375C724.075 12.1375 724.775 12.2667 725.416 12.525C726.066 12.775 726.625 13.1417 727.091 13.625C727.566 14.1 727.937 14.6917 728.204 15.4C728.47 16.1 728.604 16.9 728.604 17.8C728.604 18.15 728.566 18.3833 728.491 18.5C728.416 18.6167 728.275 18.675 728.066 18.675H719.604C719.629 19.475 719.737 20.1708 719.929 20.7625C720.129 21.3542 720.404 21.85 720.754 22.25C721.104 22.6417 721.52 22.9375 722.004 23.1375C722.487 23.3292 723.029 23.425 723.629 23.425C724.187 23.425 724.666 23.3625 725.066 23.2375C725.475 23.1042 725.825 22.9625 726.116 22.8125C726.408 22.6625 726.65 22.525 726.841 22.4C727.041 22.2667 727.212 22.2 727.354 22.2C727.537 22.2 727.679 22.2708 727.779 22.4125L728.404 23.225ZM735.127 25.2C734.127 25.2 733.356 24.9208 732.814 24.3625C732.281 23.8042 732.014 23 732.014 21.95V14.2H730.489C730.356 14.2 730.243 14.1625 730.152 14.0875C730.06 14.0042 730.014 13.8792 730.014 13.7125V12.825L732.089 12.5625L732.602 8.65C732.627 8.525 732.681 8.425 732.764 8.35C732.856 8.26667 732.972 8.225 733.114 8.225H734.239V12.5875H737.902V14.2H734.239V21.8C734.239 22.3333 734.368 22.7292 734.627 22.9875C734.885 23.2458 735.218 23.375 735.627 23.375C735.86 23.375 736.06 23.3458 736.227 23.2875C736.402 23.2208 736.552 23.15 736.677 23.075C736.802 23 736.906 22.9333 736.989 22.875C737.081 22.8083 737.16 22.775 737.227 22.775C737.343 22.775 737.447 22.8458 737.539 22.9875L738.189 24.05C737.806 24.4083 737.343 24.6917 736.802 24.9C736.26 25.1 735.702 25.2 735.127 25.2ZM747.574 14.425C747.474 14.6083 747.32 14.7 747.112 14.7C746.987 14.7 746.845 14.6542 746.687 14.5625C746.528 14.4708 746.332 14.3708 746.099 14.2625C745.874 14.1458 745.603 14.0417 745.287 13.95C744.97 13.85 744.595 13.8 744.162 13.8C743.787 13.8 743.449 13.85 743.149 13.95C742.849 14.0417 742.591 14.1708 742.374 14.3375C742.166 14.5042 742.003 14.7 741.887 14.925C741.778 15.1417 741.724 15.3792 741.724 15.6375C741.724 15.9625 741.816 16.2333 741.999 16.45C742.191 16.6667 742.441 16.8542 742.749 17.0125C743.057 17.1708 743.407 17.3125 743.799 17.4375C744.191 17.5542 744.591 17.6833 744.999 17.825C745.416 17.9583 745.82 18.1083 746.212 18.275C746.603 18.4417 746.953 18.65 747.262 18.9C747.57 19.15 747.816 19.4583 747.999 19.825C748.191 20.1833 748.287 20.6167 748.287 21.125C748.287 21.7083 748.182 22.25 747.974 22.75C747.766 23.2417 747.457 23.6708 747.049 24.0375C746.641 24.3958 746.141 24.6792 745.549 24.8875C744.957 25.0958 744.274 25.2 743.499 25.2C742.616 25.2 741.816 25.0583 741.099 24.775C740.382 24.4833 739.774 24.1125 739.274 23.6625L739.799 22.8125C739.866 22.7042 739.945 22.6208 740.037 22.5625C740.128 22.5042 740.245 22.475 740.387 22.475C740.537 22.475 740.695 22.5333 740.862 22.65C741.028 22.7667 741.228 22.8958 741.462 23.0375C741.703 23.1792 741.995 23.3083 742.337 23.425C742.678 23.5417 743.103 23.6 743.612 23.6C744.045 23.6 744.424 23.5458 744.749 23.4375C745.074 23.3208 745.345 23.1667 745.562 22.975C745.778 22.7833 745.937 22.5625 746.037 22.3125C746.145 22.0625 746.199 21.7958 746.199 21.5125C746.199 21.1625 746.103 20.875 745.912 20.65C745.728 20.4167 745.482 20.2208 745.174 20.0625C744.866 19.8958 744.512 19.7542 744.112 19.6375C743.72 19.5125 743.316 19.3833 742.899 19.25C742.491 19.1167 742.087 18.9667 741.687 18.8C741.295 18.625 740.945 18.4083 740.637 18.15C740.328 17.8917 740.078 17.575 739.887 17.2C739.703 16.8167 739.612 16.3542 739.612 15.8125C739.612 15.3292 739.712 14.8667 739.912 14.425C740.112 13.975 740.403 13.5833 740.787 13.25C741.17 12.9083 741.641 12.6375 742.199 12.4375C742.757 12.2375 743.395 12.1375 744.112 12.1375C744.945 12.1375 745.691 12.2708 746.349 12.5375C747.016 12.7958 747.591 13.1542 748.074 13.6125L747.574 14.425Z" fill="url(#paint0_linear_114_6507)"/>
<path d="M3.4293 100.1L4.9293 98H13.1293L26.6293 157.8H27.8293L42.0293 105.3H52.1293L66.2293 157.8H67.5293L80.9293 98H89.1293L90.6293 100.1L75.4293 167H58.9293L47.0293 122.5L35.2293 167H18.7293L3.4293 100.1ZM110.871 167C100.604 167 95.4707 161.9 95.4707 151.7C95.4707 141.5 100.604 136.4 110.871 136.4H127.771V129.1C127.771 125.233 125.837 123.3 121.971 123.3H100.571V118.2L105.171 114.8H122.171C132.371 114.8 137.471 119.9 137.471 130.1V167H110.871ZM105.171 152.6C105.171 156.533 107.137 158.5 111.071 158.5H127.771V144H111.071C107.137 144 105.171 145.967 105.171 149.9V152.6ZM152.265 151.3V93H161.965V152.3C161.965 156.767 164.232 159.167 168.765 159.5V167.9C157.765 167.9 152.265 162.367 152.265 151.3ZM179.804 151.3V93H189.504V152.3C189.504 156.767 191.771 159.167 196.304 159.5V167.9C185.304 167.9 179.804 162.367 179.804 151.3ZM206.943 151.6V130.1C206.943 119.9 212.043 114.8 222.243 114.8H235.243C245.443 114.8 250.543 119.9 250.543 130.1V144.5H216.643V152.6C216.643 156.533 218.61 158.5 222.543 158.5H248.543V163.6L244.043 167H222.243C212.043 167 206.943 161.867 206.943 151.6ZM216.643 136.9H240.843V129.1C240.843 125.233 238.91 123.3 235.043 123.3H222.543C218.61 123.3 216.643 125.233 216.643 129.1V136.9ZM264.961 151.6V98H274.661V114.8H293.161V123.3H274.661V152.6C274.661 156.533 276.627 158.5 280.561 158.5H294.161V163.6L289.561 167H280.261C270.061 167 264.961 161.867 264.961 151.6ZM303.595 163.6V158.5H326.695C330.628 158.5 332.595 156.5 332.595 152.5C332.595 148.367 330.995 146.033 327.795 145.5L316.295 143.6C307.828 142.133 303.595 137.467 303.595 129.6C303.595 119.733 308.728 114.8 318.995 114.8H335.295L339.895 118.2V123.3H319.195C315.195 123.3 313.195 125.3 313.195 129.3C313.195 133.033 314.862 135.2 318.195 135.8L329.795 137.7C338.128 139.1 342.295 143.9 342.295 152.1C342.295 162.033 337.128 167 326.795 167H308.195L303.595 163.6ZM374.914 100.1L376.414 98H384.614L398.114 157.8H399.314L413.514 105.3H423.614L437.714 157.8H439.014L452.414 98H460.614L462.114 100.1L446.914 167H430.414L418.514 122.5L406.714 167H390.214L374.914 100.1ZM470.029 151.6V130.1C470.029 119.9 475.129 114.8 485.329 114.8H498.329C508.529 114.8 513.629 119.9 513.629 130.1V144.5H479.729V152.6C479.729 156.533 481.696 158.5 485.629 158.5H511.629V163.6L507.129 167H485.329C475.129 167 470.029 161.867 470.029 151.6ZM479.729 136.9H503.929V129.1C503.929 125.233 501.996 123.3 498.129 123.3H485.629C481.696 123.3 479.729 125.233 479.729 129.1V136.9ZM550.47 163V157.8H581.27C585.07 157.8 586.97 155.933 586.97 152.2V144.3C586.97 141.033 585.537 139.133 582.67 138.6L561.77 134.3C554.237 132.833 550.47 127.8 550.47 119.2V113.8C550.47 103.267 555.703 98 566.17 98H589.97L595.07 102V107.2H566.27C562.47 107.2 560.57 109.067 560.57 112.8V119.6C560.57 122.867 562.003 124.767 564.87 125.3L585.87 129.4C593.337 131 597.07 136.067 597.07 144.6V151.2C597.07 161.733 591.837 167 581.37 167H555.57L550.47 163ZM610.273 151.6V114.8H619.973V152.6C619.973 156.533 621.94 158.5 625.873 158.5H644.173V114.8H653.873V167H625.573C615.373 167 610.273 161.867 610.273 151.6ZM669.462 187V114.8H697.762C707.962 114.8 713.062 119.9 713.062 130.1V151.6C713.062 161.867 707.962 167 697.762 167H679.162V187H669.462ZM679.162 158.5H697.562C701.429 158.5 703.362 156.533 703.362 152.6V129.1C703.362 125.233 701.429 123.3 697.562 123.3H679.162V158.5ZM727.861 187V114.8H756.161C766.361 114.8 771.461 119.9 771.461 130.1V151.6C771.461 161.867 766.361 167 756.161 167H737.561V187H727.861ZM737.561 158.5H755.961C759.827 158.5 761.761 156.533 761.761 152.6V129.1C761.761 125.233 759.827 123.3 755.961 123.3H737.561V158.5ZM785.459 151.6V130.1C785.459 119.9 790.559 114.8 800.759 114.8H814.759C824.959 114.8 830.059 119.9 830.059 130.1V151.6C830.059 161.867 824.959 167 814.759 167H800.759C790.559 167 785.459 161.867 785.459 151.6ZM795.159 152.6C795.159 156.533 797.126 158.5 801.059 158.5H814.559C818.426 158.5 820.359 156.533 820.359 152.6V129.1C820.359 125.233 818.426 123.3 814.559 123.3H801.059C797.126 123.3 795.159 125.233 795.159 129.1V152.6ZM844.453 167V121C846.786 116.867 851.219 114.8 857.753 114.8H868.053L872.653 118.2V123.3H859.653C857.053 123.3 855.219 123.967 854.153 125.3V167H844.453ZM882.636 151.6V98H892.336V114.8H910.836V123.3H892.336V152.6C892.336 156.533 894.303 158.5 898.236 158.5H911.836V163.6L907.236 167H897.936C887.736 167 882.636 161.867 882.636 151.6Z" fill="white"/>
<defs>
<linearGradient id="paint0_linear_114_6507" x1="166" y1="0" x2="750" y2="25" gradientUnits="userSpaceOnUse">
<stop stop-color="white"/>
<stop offset="1" stop-color="#F81DFB"/>
</linearGradient>
</defs>
</svg>
