<svg width="188" height="44" viewBox="0 0 188 44" fill="none" xmlns="http://www.w3.org/2000/svg">
<path d="M6 0.5H14V5.5V38.5V43.5H6V38.5H10V5.5H6V0.5Z" fill="url(#paint0_linear_108_1235)"/>
<rect y="10.5" width="4" height="22" fill="#AD1AAF"/>
<rect width="160" height="43" transform="translate(14 0.5)" fill="#AD1AAF"/>
<path d="M31.7272 24.656V17.924C31.7272 16.028 32.6692 15.08 34.5532 15.08H39.5572L40.4752 15.8V16.736H34.5712C33.8872 16.736 33.5452 17.072 33.5452 17.744V24.836C33.5452 25.508 33.8872 25.844 34.5712 25.844H40.4752V26.78L39.5572 27.5H34.5532C32.6692 27.5 31.7272 26.552 31.7272 24.656ZM42.6399 24.728V20.858C42.6399 19.022 43.5579 18.104 45.3939 18.104H47.9139C49.7499 18.104 50.6679 19.022 50.6679 20.858V24.728C50.6679 26.576 49.7499 27.5 47.9139 27.5H45.3939C43.5579 27.5 42.6399 26.576 42.6399 24.728ZM44.3859 24.908C44.3859 25.616 44.7399 25.97 45.4479 25.97H47.8779C48.5739 25.97 48.9219 25.616 48.9219 24.908V20.678C48.9219 19.982 48.5739 19.634 47.8779 19.634H45.4479C44.7399 19.634 44.3859 19.982 44.3859 20.678V24.908ZM53.3308 27.5V18.104H58.4248C60.2608 18.104 61.1788 19.022 61.1788 20.858V27.5H59.4328V20.678C59.4328 19.982 59.0848 19.634 58.3888 19.634H55.0768V27.5H53.3308ZM63.9128 27.5V18.104H69.0068C70.8428 18.104 71.7608 19.022 71.7608 20.858V27.5H70.0148V20.678C70.0148 19.982 69.6668 19.634 68.9708 19.634H65.6588V27.5H63.9128ZM74.3508 24.728V20.858C74.3508 19.022 75.2688 18.104 77.1048 18.104H79.4448C81.2808 18.104 82.1988 19.022 82.1988 20.858V23.45H76.0968V24.908C76.0968 25.616 76.4508 25.97 77.1588 25.97H81.8388V26.888L81.0288 27.5H77.1048C75.2688 27.5 74.3508 26.576 74.3508 24.728ZM76.0968 22.082H80.4528V20.678C80.4528 19.982 80.1048 19.634 79.4088 19.634H77.1588C76.4508 19.634 76.0968 19.982 76.0968 20.678V22.082ZM84.7219 24.728V20.858C84.7219 19.022 85.6399 18.104 87.4759 18.104H90.9499L91.7779 18.716V19.634H87.5299C86.8219 19.634 86.4679 19.982 86.4679 20.678V24.908C86.4679 25.616 86.8219 25.97 87.5299 25.97H91.7779V26.888L90.9499 27.5H87.4759C85.6399 27.5 84.7219 26.576 84.7219 24.728ZM93.9345 24.728V15.08H95.6805V18.104H99.0105V19.634H95.6805V24.908C95.6805 25.616 96.0345 25.97 96.7425 25.97H99.1905V26.888L98.3625 27.5H96.6885C94.8525 27.5 93.9345 26.576 93.9345 24.728ZM104.691 15.458L104.961 15.08H106.437L108.867 25.844H109.083L111.639 16.394H113.457L115.995 25.844H116.229L118.641 15.08H120.117L120.387 15.458L117.651 27.5H114.681L112.539 19.49L110.415 27.5H107.445L104.691 15.458ZM124.03 27.5C122.182 27.5 121.258 26.582 121.258 24.746C121.258 22.91 122.182 21.992 124.03 21.992H127.072V20.678C127.072 19.982 126.724 19.634 126.028 19.634H122.176V18.716L123.004 18.104H126.064C127.9 18.104 128.818 19.022 128.818 20.858V27.5H124.03ZM123.004 24.908C123.004 25.616 123.358 25.97 124.066 25.97H127.072V23.36H124.066C123.358 23.36 123.004 23.714 123.004 24.422V24.908ZM131.481 24.674V14.18H133.227V24.854C133.227 25.658 133.635 26.09 134.451 26.15V27.662C132.471 27.662 131.481 26.666 131.481 24.674ZM136.438 24.674V14.18H138.184V24.854C138.184 25.658 138.592 26.09 139.408 26.15V27.662C137.428 27.662 136.438 26.666 136.438 24.674ZM141.323 24.728V20.858C141.323 19.022 142.241 18.104 144.077 18.104H146.417C148.253 18.104 149.171 19.022 149.171 20.858V23.45H143.069V24.908C143.069 25.616 143.423 25.97 144.131 25.97H148.811V26.888L148.001 27.5H144.077C142.241 27.5 141.323 26.576 141.323 24.728ZM143.069 22.082H147.425V20.678C147.425 19.982 147.077 19.634 146.381 19.634H144.131C143.423 19.634 143.069 19.982 143.069 20.678V22.082ZM151.767 24.728V15.08H153.513V18.104H156.843V19.634H153.513V24.908C153.513 25.616 153.867 25.97 154.575 25.97H157.023V26.888L156.195 27.5H154.521C152.685 27.5 151.767 26.576 151.767 24.728Z" fill="white"/>
<path d="M182 0.5H174V5.5V38.5V43.5H182V38.5H178V5.5H182V0.5Z" fill="url(#paint1_linear_108_1235)"/>
<rect width="4" height="22" transform="matrix(-1 0 0 1 188 10.5)" fill="#AD1AAF"/>
<defs>
<linearGradient id="paint0_linear_108_1235" x1="34" y1="4.49999" x2="194" y2="43.5" gradientUnits="userSpaceOnUse">
<stop stop-color="#AD1AAF"/>
<stop offset="0.619792" stop-color="#AD1AAF"/>
<stop offset="1" stop-color="#AD1AAF"/>
</linearGradient>
<linearGradient id="paint1_linear_108_1235" x1="154" y1="4.49999" x2="-6.00004" y2="43.5" gradientUnits="userSpaceOnUse">
<stop stop-color="#AD1AAF"/>
<stop offset="0.619792" stop-color="#AD1AAF"/>
<stop offset="1" stop-color="#AD1AAF"/>
</linearGradient>
</defs>
</svg>
