<svg width="106" height="107" viewBox="0 0 106 107" fill="none" xmlns="http://www.w3.org/2000/svg">
<g filter="url(#filter0_b_108_1504)">
<circle cx="53" cy="53.5" r="53" fill="url(#paint0_linear_108_1504)"/>
</g>
<g clip-path="url(#clip0_108_1504)">
<path d="M36.5 40C36.1022 40 35.7206 39.842 35.4393 39.5607C35.158 39.2794 35 38.8978 35 38.5C35 38.1022 35.158 37.7206 35.4393 37.4393C35.7206 37.158 36.1022 37 36.5 37H69.5C69.8978 37 70.2794 37.158 70.5607 37.4393C70.842 37.7206 71 38.1022 71 38.5C71 38.8978 70.842 39.2794 70.5607 39.5607C70.2794 39.842 69.8978 40 69.5 40H36.5ZM42.5 34C42.1022 34 41.7206 33.842 41.4393 33.5607C41.158 33.2794 41 32.8978 41 32.5C41 32.1022 41.158 31.7206 41.4393 31.4393C41.7206 31.158 42.1022 31 42.5 31H63.5C63.8978 31 64.2794 31.158 64.5607 31.4393C64.842 31.7206 65 32.1022 65 32.5C65 32.8978 64.842 33.2794 64.5607 33.5607C64.2794 33.842 63.8978 34 63.5 34H42.5ZM29 68.5C29 69.6935 29.4741 70.8381 30.318 71.682C31.1619 72.5259 32.3065 73 33.5 73H72.5C73.6935 73 74.8381 72.5259 75.682 71.682C76.5259 70.8381 77 69.6935 77 68.5V47.5C77 46.3065 76.5259 45.1619 75.682 44.318C74.8381 43.4741 73.6935 43 72.5 43H33.5C32.3065 43 31.1619 43.4741 30.318 44.318C29.4741 45.1619 29 46.3065 29 47.5V68.5ZM33.5 70C33.1022 70 32.7206 69.842 32.4393 69.5607C32.158 69.2794 32 68.8978 32 68.5V47.5C32 47.1022 32.158 46.7206 32.4393 46.4393C32.7206 46.158 33.1022 46 33.5 46H72.5C72.8978 46 73.2794 46.158 73.5607 46.4393C73.842 46.7206 74 47.1022 74 47.5V68.5C74 68.8978 73.842 69.2794 73.5607 69.5607C73.2794 69.842 72.8978 70 72.5 70H33.5Z" fill="#F81DFB"/>
</g>
<defs>
<filter id="filter0_b_108_1504" x="-20" y="-19.5" width="146" height="146" filterUnits="userSpaceOnUse" color-interpolation-filters="sRGB">
<feFlood flood-opacity="0" result="BackgroundImageFix"/>
<feGaussianBlur in="BackgroundImageFix" stdDeviation="10"/>
<feComposite in2="SourceAlpha" operator="in" result="effect1_backgroundBlur_108_1504"/>
<feBlend mode="normal" in="SourceGraphic" in2="effect1_backgroundBlur_108_1504" result="shape"/>
</filter>
<linearGradient id="paint0_linear_108_1504" x1="0" y1="0.5" x2="78.0246" y2="124.152" gradientUnits="userSpaceOnUse">
<stop stop-color="white" stop-opacity="0.1"/>
<stop offset="1" stop-color="white" stop-opacity="0.05"/>
</linearGradient>
<clipPath id="clip0_108_1504">
<rect width="48" height="48" fill="white" transform="translate(29 29.5)"/>
</clipPath>
</defs>
</svg>
