<svg width="107" height="107" viewBox="0 0 107 107" fill="none" xmlns="http://www.w3.org/2000/svg">
<g filter="url(#filter0_b_108_1511)">
<circle cx="53.5" cy="53.5" r="53" fill="url(#paint0_linear_108_1511)"/>
</g>
<path d="M72.1668 49.4997H70.8335V41.4997C70.8335 41.146 70.693 40.8069 70.443 40.5569C70.1929 40.3068 69.8538 40.1663 69.5002 40.1663H37.5002C37.1845 40.1715 36.8772 40.0644 36.633 39.8642C36.3888 39.664 36.2236 39.3836 36.1668 39.073V38.593C36.2236 38.2824 36.3888 38.002 36.633 37.8018C36.8772 37.6016 37.1845 37.4945 37.5002 37.4997H68.9402C69.2938 37.4997 69.6329 37.3592 69.883 37.1091C70.133 36.8591 70.2735 36.52 70.2735 36.1663C70.2735 35.8127 70.133 35.4736 69.883 35.2235C69.6329 34.9735 69.2938 34.833 68.9402 34.833H37.5002C36.4393 34.833 35.4219 35.2544 34.6718 36.0046C33.9216 36.7547 33.5002 37.7721 33.5002 38.833C33.4908 38.9929 33.4908 39.1531 33.5002 39.313V66.7397C33.5054 67.4576 33.652 68.1674 33.9316 68.8286C34.2111 69.4899 34.6182 70.0896 35.1296 70.5935C35.6409 71.0974 36.2465 71.4957 36.9118 71.7655C37.577 72.0354 38.289 72.1716 39.0068 72.1663H69.5002C69.8538 72.1663 70.1929 72.0259 70.443 71.7758C70.693 71.5258 70.8335 71.1866 70.8335 70.833V62.833H72.1668C72.5205 62.833 72.8596 62.6925 73.1097 62.4425C73.3597 62.1924 73.5002 61.8533 73.5002 61.4997V50.833C73.5002 50.4794 73.3597 50.1402 73.1097 49.8902C72.8596 49.6401 72.5205 49.4997 72.1668 49.4997ZM68.1668 69.4997H39.0068C38.2653 69.5068 37.5508 69.2209 37.019 68.704C36.4871 68.1871 36.1809 67.4812 36.1668 66.7397V42.673C36.5996 42.7984 37.05 42.8525 37.5002 42.833H68.1668V49.4997H58.8335C57.0654 49.4997 55.3697 50.202 54.1195 51.4523C52.8692 52.7025 52.1668 54.3982 52.1668 56.1663C52.1668 57.9344 52.8692 59.6301 54.1195 60.8804C55.3697 62.1306 57.0654 62.833 58.8335 62.833H68.1668V69.4997ZM70.8335 60.1663H58.8335C57.7726 60.1663 56.7552 59.7449 56.0051 58.9948C55.2549 58.2446 54.8335 57.2272 54.8335 56.1663C54.8335 55.1055 55.2549 54.0881 56.0051 53.3379C56.7552 52.5878 57.7726 52.1663 58.8335 52.1663H70.8335V60.1663Z" fill="#F81DFB"/>
<path d="M60.1797 58.167C61.2843 58.167 62.1797 57.2716 62.1797 56.167C62.1797 55.0624 61.2843 54.167 60.1797 54.167C59.0751 54.167 58.1797 55.0624 58.1797 56.167C58.1797 57.2716 59.0751 58.167 60.1797 58.167Z" fill="#908294"/>
<defs>
<filter id="filter0_b_108_1511" x="-19.5" y="-19.5" width="146" height="146" filterUnits="userSpaceOnUse" color-interpolation-filters="sRGB">
<feFlood flood-opacity="0" result="BackgroundImageFix"/>
<feGaussianBlur in="BackgroundImageFix" stdDeviation="10"/>
<feComposite in2="SourceAlpha" operator="in" result="effect1_backgroundBlur_108_1511"/>
<feBlend mode="normal" in="SourceGraphic" in2="effect1_backgroundBlur_108_1511" result="shape"/>
</filter>
<linearGradient id="paint0_linear_108_1511" x1="0.5" y1="0.5" x2="78.5246" y2="124.152" gradientUnits="userSpaceOnUse">
<stop stop-color="white" stop-opacity="0.1"/>
<stop offset="1" stop-color="white" stop-opacity="0.05"/>
</linearGradient>
</defs>
</svg>
