<svg width="728" height="244" viewBox="0 0 728 244" fill="none" xmlns="http://www.w3.org/2000/svg">
<path d="M5.525 59.5V14.65H35.685V21.865H13.455V32.655H33.735V39.87H13.455V52.285H35.685V59.5H5.525ZM40.7961 57.875L55.0961 36.425L41.6411 16.275L42.4211 14.65H49.3761L59.4511 30.12L69.5911 14.65H76.5461L77.3261 16.275L63.8711 36.425L78.1711 57.875L77.3911 59.5H70.4361L59.4511 42.73L48.5311 59.5H41.5761L40.7961 57.875ZM85.5689 59.5V14.65H107.149C114.212 14.65 117.744 18.1817 117.744 25.245V33.89C117.744 40.91 114.212 44.42 107.149 44.42H93.4989V59.5H85.5689ZM93.4989 37.205H106.954C108.861 37.205 109.814 36.2517 109.814 34.345V24.66C109.814 22.7967 108.861 21.865 106.954 21.865H93.4989V37.205ZM126.829 59.5V14.65H134.759V52.285H155.039V59.5H126.829ZM161.472 48.905V25.245C161.472 18.1817 165.003 14.65 172.067 14.65H186.952C194.015 14.65 197.547 18.1817 197.547 25.245V48.905C197.547 55.9683 194.015 59.5 186.952 59.5H172.067C165.003 59.5 161.472 55.9683 161.472 48.905ZM169.402 49.49C169.402 51.3533 170.355 52.285 172.262 52.285H186.757C188.663 52.285 189.617 51.3533 189.617 49.49V24.66C189.617 22.7967 188.663 21.865 186.757 21.865H172.262C170.355 21.865 169.402 22.7967 169.402 24.66V49.49ZM207.952 59.5V14.65H229.532C236.595 14.65 240.127 18.1817 240.127 25.245V32.59C240.127 38.05 237.96 41.365 233.627 42.535L241.427 57.81L240.452 59.5H233.692L225.372 43.12H215.882V59.5H207.952ZM215.882 35.905H229.337C231.243 35.905 232.197 34.9517 232.197 33.045V24.66C232.197 22.7967 231.243 21.865 229.337 21.865H215.882V35.905ZM249.846 59.5V14.65H280.006V21.865H257.776V32.655H278.056V39.87H257.776V52.285H280.006V59.5H249.846ZM284.922 67.625L288.692 51.05H296.037L296.817 52.285L290.577 68.99L284.922 67.625ZM321.369 48.905V25.245C321.369 18.1817 324.901 14.65 331.964 14.65H349.644L353.479 17.64V21.865H332.159C330.252 21.865 329.299 22.7967 329.299 24.66V49.49C329.299 51.3533 330.252 52.285 332.159 52.285H353.479V56.51L349.644 59.5H331.964C324.901 59.5 321.369 55.9683 321.369 48.905ZM362.263 59.5V14.65H383.843C390.907 14.65 394.438 18.1817 394.438 25.245V32.59C394.438 38.05 392.272 41.365 387.938 42.535L395.738 57.81L394.763 59.5H388.003L379.683 43.12H370.193V59.5H362.263ZM370.193 35.905H383.648C385.555 35.905 386.508 34.9517 386.508 33.045V24.66C386.508 22.7967 385.555 21.865 383.648 21.865H370.193V35.905ZM404.158 59.5V14.65H434.318V21.865H412.088V32.655H432.368V39.87H412.088V52.285H434.318V59.5H404.158ZM438.779 57.94L452.624 14.65H464.974L478.754 57.94L477.779 59.5H471.084L468.029 49.62H449.504L446.384 59.5H439.819L438.779 57.94ZM451.714 42.405H465.884L459.384 21.865H458.149L451.714 42.405ZM478.332 21.865V14.65H514.537V21.865H500.432V59.5H492.437V21.865H478.332ZM521.653 59.5V14.65H551.813V21.865H529.583V32.655H549.863V39.87H529.583V52.285H551.813V59.5H521.653ZM571.889 57.94L585.734 14.65H598.084L611.864 57.94L610.889 59.5H604.194L601.139 49.62H582.614L579.494 59.5H572.929L571.889 57.94ZM584.824 42.405H598.994L592.494 21.865H591.259L584.824 42.405ZM618.645 59.5V14.65H627.29L647.18 46.63V14.65H655.11V59.5H646.53L626.575 27.52V59.5H618.645ZM666.189 59.5V14.65H683.414C695.114 14.65 700.964 20.5217 700.964 32.265V41.885C700.964 53.6283 695.114 59.5 683.414 59.5H666.189ZM674.119 52.285H683.869C689.979 52.285 693.034 49.23 693.034 43.12V31.03C693.034 24.92 689.979 21.865 683.869 21.865H674.119V52.285ZM3.575 137.51V133.285H23.66C25.5667 133.285 26.52 132.353 26.52 130.49V125.55C26.52 123.903 25.7833 122.928 24.31 122.625L11.115 119.96C6.08833 118.963 3.575 115.583 3.575 109.82V106.245C3.575 99.1817 7.10667 95.65 14.17 95.65H29.315L33.15 98.64V102.865H14.365C12.4583 102.865 11.505 103.797 11.505 105.66V110.015C11.505 111.662 12.2417 112.637 13.715 112.94L26.91 115.54C31.9367 116.58 34.45 119.96 34.45 125.68V129.905C34.45 136.968 30.9183 140.5 23.855 140.5H7.41L3.575 137.51ZM43.5475 140.5V95.65H73.7075V102.865H51.4775V113.655H71.7575V120.87H51.4775V133.285H73.7075V140.5H43.5475ZM82.4586 140.5V95.65H90.3886V133.285H110.669V140.5H82.4586ZM117.752 140.5V95.65H125.682V133.285H145.962V140.5H117.752ZM164.37 97.21L165.345 95.65H172.105L182.7 115.995L193.36 95.65H200.185L201.095 97.21L186.73 124.38V140.5H178.735V124.38L164.37 97.21ZM207.175 129.905V106.245C207.175 99.1817 210.706 95.65 217.77 95.65H232.655C239.718 95.65 243.25 99.1817 243.25 106.245V129.905C243.25 136.968 239.718 140.5 232.655 140.5H217.77C210.706 140.5 207.175 136.968 207.175 129.905ZM215.105 130.49C215.105 132.353 216.058 133.285 217.965 133.285H232.46C234.366 133.285 235.32 132.353 235.32 130.49V105.66C235.32 103.797 234.366 102.865 232.46 102.865H217.965C216.058 102.865 215.105 103.797 215.105 105.66V130.49ZM253.265 129.905V95.65H261.195V130.49C261.195 132.353 262.148 133.285 264.055 133.285H277.25C279.157 133.285 280.11 132.353 280.11 130.49V95.65H288.04V129.905C288.04 136.968 284.508 140.5 277.445 140.5H263.86C256.797 140.5 253.265 136.968 253.265 129.905ZM298.723 140.5V95.65H320.303C327.367 95.65 330.898 99.1817 330.898 106.245V113.59C330.898 119.05 328.732 122.365 324.398 123.535L332.198 138.81L331.223 140.5H324.463L316.143 124.12H306.653V140.5H298.723ZM306.653 116.905H320.108C322.015 116.905 322.968 115.952 322.968 114.045V105.66C322.968 103.797 322.015 102.865 320.108 102.865H306.653V116.905ZM371.848 140.5V95.65H380.493L400.383 127.63V95.65H408.313V140.5H399.733L379.778 108.52V140.5H371.848ZM419.392 140.5V95.65H449.552V102.865H427.322V115.605H447.602V122.82H427.322V140.5H419.392ZM453.069 102.865V95.65H489.274V102.865H475.169V140.5H467.174V102.865H453.069ZM493.464 108.91L497.884 92.4H504.709L505.489 93.57L499.119 110.405L493.464 108.91ZM512.086 137.51V133.285H532.171C534.077 133.285 535.031 132.353 535.031 130.49V125.55C535.031 123.903 534.294 122.928 532.821 122.625L519.626 119.96C514.599 118.963 512.086 115.583 512.086 109.82V106.245C512.086 99.1817 515.617 95.65 522.681 95.65H537.826L541.661 98.64V102.865H522.876C520.969 102.865 520.016 103.797 520.016 105.66V110.015C520.016 111.662 520.752 112.637 522.226 112.94L535.421 115.54C540.447 116.58 542.961 119.96 542.961 125.68V129.905C542.961 136.968 539.429 140.5 532.366 140.5H515.921L512.086 137.51ZM582.639 129.905V106.245C582.639 99.1817 586.17 95.65 593.234 95.65H608.119C615.182 95.65 618.714 99.1817 618.714 106.245V129.905C618.714 136.968 615.182 140.5 608.119 140.5H593.234C586.17 140.5 582.639 136.968 582.639 129.905ZM590.569 130.49C590.569 132.353 591.522 133.285 593.429 133.285H607.924C609.83 133.285 610.784 132.353 610.784 130.49V105.66C610.784 103.797 609.83 102.865 607.924 102.865H593.429C591.522 102.865 590.569 103.797 590.569 105.66V130.49ZM629.119 140.5V95.65H637.764L657.654 127.63V95.65H665.584V140.5H657.004L637.049 108.52V140.5H629.119ZM3.575 218.51V214.285H23.66C25.5667 214.285 26.52 213.353 26.52 211.49V206.55C26.52 204.903 25.7833 203.928 24.31 203.625L11.115 200.96C6.08833 199.963 3.575 196.583 3.575 190.82V187.245C3.575 180.182 7.10667 176.65 14.17 176.65H29.315L33.15 179.64V183.865H14.365C12.4583 183.865 11.505 184.797 11.505 186.66V191.015C11.505 192.662 12.2417 193.637 13.715 193.94L26.91 196.54C31.9367 197.58 34.45 200.96 34.45 206.68V210.905C34.45 217.968 30.9183 221.5 23.855 221.5H7.41L3.575 218.51ZM43.5475 221.5V176.65H51.4775V194.655H70.3925V176.65H78.3225V221.5H70.3925V201.87H51.4775V221.5H43.5475ZM89.3775 221.5V176.65H97.3075V221.5H89.3775ZM108.357 221.5V176.65H116.287V194.655H135.202V176.65H143.132V221.5H135.202V201.87H116.287V221.5H108.357ZM149.897 219.94L163.742 176.65H176.092L189.872 219.94L188.897 221.5H182.202L179.147 211.62H160.622L157.502 221.5H150.937L149.897 219.94ZM162.832 204.405H177.002L170.502 183.865H169.267L162.832 204.405ZM196.653 221.5V176.65H206.403L219.858 205.38L233.313 176.65H243.063V221.5H235.068V190.17L223.238 215.39H216.413L204.583 190.17V221.5H196.653ZM254.099 221.5V176.65H262.029V221.5H254.099Z" fill="white"/>
</svg>
