<svg width="727" height="81" viewBox="0 0 727 81" fill="none" xmlns="http://www.w3.org/2000/svg">
<g filter="url(#filter0_b_108_141)">
<path d="M0 0.5H727V80.5H0V0.5Z" fill="url(#paint0_linear_108_141)"/>
</g>
<path d="M51.62 45.5V33.08H59.72V34.448H53.132V38.3H59.18V39.668H53.132V44.132H59.72V45.5H51.62ZM61.1572 45.158L65.2612 39.11L61.3912 33.422L61.5532 33.08H62.8672L66.1072 37.94L69.3472 33.08H70.6612L70.8232 33.422L66.9532 39.11L71.0572 45.158L70.8952 45.5H69.5812L66.1072 40.28L62.6332 45.5H61.3192L61.1572 45.158ZM73.2235 45.5V33.08H79.1095C80.9455 33.08 81.8635 33.998 81.8635 35.834V38.174C81.8635 40.01 80.9455 40.928 79.1095 40.928H74.7355V45.5H73.2235ZM74.7355 39.56H79.1275C79.9435 39.56 80.3515 39.152 80.3515 38.336V35.672C80.3515 34.856 79.9435 34.448 79.1275 34.448H74.7355V39.56ZM84.5614 45.5V33.08H86.0734V44.132H92.1214V45.5H84.5614ZM93.9966 42.746V35.834C93.9966 33.998 94.9146 33.08 96.7506 33.08H100.963C102.799 33.08 103.717 33.998 103.717 35.834V42.746C103.717 44.582 102.799 45.5 100.963 45.5H96.7506C94.9146 45.5 93.9966 44.582 93.9966 42.746ZM95.5086 42.908C95.5086 43.724 95.9166 44.132 96.7326 44.132H100.981C101.797 44.132 102.205 43.724 102.205 42.908V35.672C102.205 34.856 101.797 34.448 100.981 34.448H96.7326C95.9166 34.448 95.5086 34.856 95.5086 35.672V42.908ZM106.78 45.5V33.08H112.666C114.502 33.08 115.42 33.998 115.42 35.834V37.814C115.42 39.374 114.754 40.262 113.422 40.478L115.78 45.14L115.582 45.5H114.304L111.802 40.568H108.292V45.5H106.78ZM108.292 39.2H112.684C113.5 39.2 113.908 38.792 113.908 37.976V35.672C113.908 34.856 113.5 34.448 112.684 34.448H108.292V39.2ZM118.294 45.5V33.08H126.394V34.448H119.806V38.3H125.854V39.668H119.806V44.132H126.394V45.5H118.294Z" fill="white"/>
<path d="M178.432 34.448V33.08H188.224V34.448H184.084V45.5H182.572V34.448H178.432ZM190.272 45.5V33.08H196.158C197.994 33.08 198.912 33.998 198.912 35.834V37.814C198.912 39.374 198.246 40.262 196.914 40.478L199.272 45.14L199.074 45.5H197.796L195.294 40.568H191.784V45.5H190.272ZM191.784 39.2H196.176C196.992 39.2 197.4 38.792 197.4 37.976V35.672C197.4 34.856 196.992 34.448 196.176 34.448H191.784V39.2ZM201.786 45.5V33.08H209.886V34.448H203.298V38.3H209.346V39.668H203.298V44.132H209.886V45.5H201.786ZM212.403 45.5V33.08H214.077L220.611 43.16V33.08H222.123V45.5H220.449L213.915 35.42V45.5H212.403ZM225.358 45.5V33.08H230.218C233.218 33.08 234.718 34.58 234.718 37.58V41C234.718 44 233.218 45.5 230.218 45.5H225.358ZM226.87 44.132H230.308C232.24 44.132 233.206 43.166 233.206 41.234V37.346C233.206 35.414 232.24 34.448 230.308 34.448H226.87V44.132ZM237.593 45.5V33.08H239.105V45.5H237.593ZM242.339 45.5V33.08H244.013L250.547 43.16V33.08H252.059V45.5H250.385L243.851 35.42V45.5H242.339ZM255.114 42.746V35.834C255.114 33.998 256.032 33.08 257.868 33.08H263.304L264.114 33.71V34.448H257.85C257.034 34.448 256.626 34.856 256.626 35.672V42.908C256.626 43.724 257.034 44.132 257.85 44.132H262.962V39.668H259.902V38.3H264.474V45.5H257.868C256.032 45.5 255.114 44.582 255.114 42.746ZM271.677 45.5V33.08H273.351L279.885 43.16V33.08H281.397V45.5H279.723L273.189 35.42V45.5H271.677ZM284.632 45.5V33.08H292.732V34.448H286.144V38.84H292.192V40.208H286.144V45.5H284.632ZM293.709 34.448V33.08H303.501V34.448H299.361V45.5H297.849V34.448H293.709ZM305.01 44.96V44.24H309.168C309.996 44.24 310.41 43.82 310.41 42.98C310.41 42.128 310.08 41.648 309.42 41.54L307.278 41.18C305.766 40.928 305.01 40.106 305.01 38.714C305.01 36.998 305.91 36.14 307.71 36.14H310.716L311.436 36.68V37.4H307.692C306.852 37.4 306.432 37.82 306.432 38.66C306.432 39.416 306.786 39.854 307.494 39.974L309.636 40.334C311.124 40.574 311.868 41.432 311.868 42.908C311.868 44.636 310.956 45.5 309.132 45.5H305.73L305.01 44.96Z" fill="white"/>
<path d="M363.36 45.176L367.428 33.08H369.912L373.98 45.176L373.764 45.5H372.522L371.496 42.368H365.844L364.818 45.5H363.576L363.36 45.176ZM366.294 41H371.046L368.886 34.448H368.454L366.294 41ZM375.85 42.746V33.08H377.362V42.908C377.362 43.724 377.77 44.132 378.586 44.132H382.474C383.29 44.132 383.698 43.724 383.698 42.908V33.08H385.21V42.746C385.21 44.582 384.292 45.5 382.456 45.5H378.604C376.768 45.5 375.85 44.582 375.85 42.746ZM388.17 42.746V35.834C388.17 33.998 389.088 33.08 390.924 33.08H396L396.81 33.71V34.448H390.906C390.09 34.448 389.682 34.856 389.682 35.672V42.908C389.682 43.724 390.09 44.132 390.906 44.132H396.81V44.87L396 45.5H390.924C389.088 45.5 388.17 44.582 388.17 42.746ZM398.149 34.448V33.08H407.941V34.448H403.801V45.5H402.289V34.448H398.149ZM409.989 45.5V33.08H411.501V45.5H409.989ZM414.555 42.746V35.834C414.555 33.998 415.473 33.08 417.309 33.08H421.521C423.357 33.08 424.275 33.998 424.275 35.834V42.746C424.275 44.582 423.357 45.5 421.521 45.5H417.309C415.473 45.5 414.555 44.582 414.555 42.746ZM416.067 42.908C416.067 43.724 416.475 44.132 417.291 44.132H421.539C422.355 44.132 422.763 43.724 422.763 42.908V35.672C422.763 34.856 422.355 34.448 421.539 34.448H417.291C416.475 34.448 416.067 34.856 416.067 35.672V42.908ZM427.339 45.5V33.08H429.013L435.547 43.16V33.08H437.059V45.5H435.385L428.851 35.42V45.5H427.339ZM440.294 45.5V33.08H448.394V34.448H441.806V38.3H447.854V39.668H441.806V44.132H448.394V45.5H440.294ZM450.911 45.5V33.08H455.771C458.771 33.08 460.271 34.58 460.271 37.58V41C460.271 44 458.771 45.5 455.771 45.5H450.911ZM452.423 44.132H455.861C457.793 44.132 458.759 43.166 458.759 41.234V37.346C458.759 35.414 457.793 34.448 455.861 34.448H452.423V44.132ZM467.47 45.5V33.08H469.144L475.678 43.16V33.08H477.19V45.5H475.516L468.982 35.42V45.5H467.47ZM480.425 45.5V33.08H488.525V34.448H481.937V38.84H487.985V40.208H481.937V45.5H480.425ZM489.502 34.448V33.08H499.294V34.448H495.154V45.5H493.642V34.448H489.502ZM500.803 44.96V44.24H504.961C505.789 44.24 506.203 43.82 506.203 42.98C506.203 42.128 505.873 41.648 505.213 41.54L503.071 41.18C501.559 40.928 500.803 40.106 500.803 38.714C500.803 36.998 501.703 36.14 503.503 36.14H506.509L507.229 36.68V37.4H503.485C502.645 37.4 502.225 37.82 502.225 38.66C502.225 39.416 502.579 39.854 503.287 39.974L505.429 40.334C506.917 40.574 507.661 41.432 507.661 42.908C507.661 44.636 506.749 45.5 504.925 45.5H501.523L500.803 44.96Z" fill="white"/>
<path d="M560.62 45.5V33.08H562.132V45.5H560.62ZM565.366 45.5V33.08H567.04L573.574 43.16V33.08H575.086V45.5H573.412L566.878 35.42V45.5H565.366ZM578.321 45.5V33.08H586.421V34.448H579.833V38.84H585.881V40.208H579.833V45.5H578.321ZM588.587 45.5V33.08H590.099V44.132H596.147V45.5H588.587ZM598.094 42.746V33.08H599.606V42.908C599.606 43.724 600.014 44.132 600.83 44.132H604.718C605.534 44.132 605.942 43.724 605.942 42.908V33.08H607.454V42.746C607.454 44.582 606.536 45.5 604.7 45.5H600.848C599.012 45.5 598.094 44.582 598.094 42.746ZM610.595 45.5V33.08H618.695V34.448H612.107V38.3H618.155V39.668H612.107V44.132H618.695V45.5H610.595ZM621.212 45.5V33.08H622.886L629.42 43.16V33.08H630.932V45.5H629.258L622.724 35.42V45.5H621.212ZM633.987 42.746V35.834C633.987 33.998 634.905 33.08 636.741 33.08H641.817L642.627 33.71V34.448H636.723C635.907 34.448 635.499 34.856 635.499 35.672V42.908C635.499 43.724 635.907 44.132 636.723 44.132H642.627V44.87L641.817 45.5H636.741C634.905 45.5 633.987 44.582 633.987 42.746ZM645.153 45.5V33.08H653.253V34.448H646.665V38.3H652.713V39.668H646.665V44.132H653.253V45.5H645.153ZM655.77 45.5V33.08H661.656C663.492 33.08 664.41 33.998 664.41 35.834V37.814C664.41 39.374 663.744 40.262 662.412 40.478L664.77 45.14L664.572 45.5H663.294L660.792 40.568H657.282V45.5H655.77ZM657.282 39.2H661.674C662.49 39.2 662.898 38.792 662.898 37.976V35.672C662.898 34.856 662.49 34.448 661.674 34.448H657.282V39.2ZM666.744 44.87V44.132H672.288C673.104 44.132 673.512 43.724 673.512 42.908V41.45C673.512 40.766 673.206 40.364 672.594 40.244L668.724 39.452C667.404 39.188 666.744 38.306 666.744 36.806V35.834C666.744 33.998 667.662 33.08 669.498 33.08H673.854L674.664 33.71V34.448H669.48C668.664 34.448 668.256 34.856 668.256 35.672V36.896C668.256 37.58 668.562 37.982 669.174 38.102L673.044 38.876C674.364 39.14 675.024 40.028 675.024 41.54V42.746C675.024 44.582 674.106 45.5 672.27 45.5H667.554L666.744 44.87Z" fill="white"/>
<defs>
<filter id="filter0_b_108_141" x="-41.6667" y="-41.1667" width="810.333" height="163.333" filterUnits="userSpaceOnUse" color-interpolation-filters="sRGB">
<feFlood flood-opacity="0" result="BackgroundImageFix"/>
<feGaussianBlur in="BackgroundImageFix" stdDeviation="20.8333"/>
<feComposite in2="SourceAlpha" operator="in" result="effect1_backgroundBlur_108_141"/>
<feBlend mode="normal" in="SourceGraphic" in2="effect1_backgroundBlur_108_141" result="shape"/>
</filter>
<linearGradient id="paint0_linear_108_141" x1="332" y1="0.5" x2="332" y2="80.5" gradientUnits="userSpaceOnUse">
<stop stop-color="white" stop-opacity="0.1"/>
<stop offset="1" stop-color="white" stop-opacity="0"/>
</linearGradient>
</defs>
</svg>
