<svg width="392" height="167" viewBox="0 0 392 167" fill="none" xmlns="http://www.w3.org/2000/svg">
<g filter="url(#filter0_b_108_1530)">
<circle cx="102.5" cy="53.5" r="53" fill="url(#paint0_linear_108_1530)"/>
</g>
<path d="M121.167 49.4997H119.834V41.4997C119.834 41.146 119.693 40.8069 119.443 40.5569C119.193 40.3068 118.854 40.1663 118.5 40.1663H86.5002C86.1845 40.1715 85.8772 40.0644 85.633 39.8642C85.3888 39.664 85.2236 39.3836 85.1668 39.073V38.593C85.2236 38.2824 85.3888 38.002 85.633 37.8018C85.8772 37.6016 86.1845 37.4945 86.5002 37.4997H117.94C118.294 37.4997 118.633 37.3592 118.883 37.1091C119.133 36.8591 119.274 36.52 119.274 36.1663C119.274 35.8127 119.133 35.4736 118.883 35.2235C118.633 34.9735 118.294 34.833 117.94 34.833H86.5002C85.4393 34.833 84.4219 35.2544 83.6718 36.0046C82.9216 36.7547 82.5002 37.7721 82.5002 38.833C82.4908 38.9929 82.4908 39.1531 82.5002 39.313V66.7397C82.5054 67.4576 82.652 68.1674 82.9316 68.8286C83.2111 69.4899 83.6182 70.0896 84.1296 70.5935C84.6409 71.0974 85.2465 71.4957 85.9118 71.7655C86.577 72.0354 87.289 72.1716 88.0068 72.1663H118.5C118.854 72.1663 119.193 72.0259 119.443 71.7758C119.693 71.5258 119.834 71.1866 119.834 70.833V62.833H121.167C121.52 62.833 121.86 62.6925 122.11 62.4425C122.36 62.1924 122.5 61.8533 122.5 61.4997V50.833C122.5 50.4794 122.36 50.1402 122.11 49.8902C121.86 49.6401 121.52 49.4997 121.167 49.4997ZM117.167 69.4997H88.0068C87.2653 69.5068 86.5508 69.2209 86.019 68.704C85.4871 68.1871 85.1809 67.4812 85.1668 66.7397V42.673C85.5996 42.7984 86.05 42.8525 86.5002 42.833H117.167V49.4997H107.834C106.065 49.4997 104.37 50.202 103.119 51.4523C101.869 52.7025 101.167 54.3982 101.167 56.1663C101.167 57.9344 101.869 59.6301 103.119 60.8804C104.37 62.1306 106.065 62.833 107.834 62.833H117.167V69.4997ZM119.834 60.1663H107.834C106.773 60.1663 105.755 59.7449 105.005 58.9948C104.255 58.2446 103.834 57.2272 103.834 56.1663C103.834 55.1055 104.255 54.0881 105.005 53.3379C105.755 52.5878 106.773 52.1663 107.834 52.1663H119.834V60.1663Z" fill="#F81DFB"/>
<path d="M109.18 58.167C110.284 58.167 111.18 57.2716 111.18 56.167C111.18 55.0624 110.284 54.167 109.18 54.167C108.075 54.167 107.18 55.0624 107.18 56.167C107.18 57.2716 108.075 58.167 109.18 58.167Z" fill="#908294"/>
<path d="M1.44 157.66V156.676H8.832C9.92 156.676 10.464 156.132 10.464 155.044V153.1C10.464 152.188 10.056 151.652 9.24 151.492L4.08 150.436C2.32 150.084 1.44 148.908 1.44 146.908V145.612C1.44 143.164 2.664 141.94 5.112 141.94H10.92L12 142.78V143.764H5.088C4 143.764 3.456 144.308 3.456 145.396V147.028C3.456 147.94 3.864 148.476 4.68 148.636L9.84 149.668C11.6 150.02 12.48 151.204 12.48 153.22V154.828C12.48 157.276 11.256 158.5 8.808 158.5H2.52L1.44 157.66ZM15.6499 154.9V149.62C15.6499 147.22 16.8499 146.02 19.2499 146.02H22.3699C24.7699 146.02 25.9699 147.22 25.9699 149.62V153.004H17.5699V155.14C17.5699 156.26 18.1299 156.82 19.2499 156.82H25.4899V157.78L24.5299 158.5H19.2499C16.8499 158.5 15.6499 157.3 15.6499 154.9ZM17.5699 151.444H24.0499V149.38C24.0499 148.26 23.4899 147.7 22.3699 147.7H19.2499C18.1299 147.7 17.5699 148.26 17.5699 149.38V151.444ZM29.5271 154.9V141.94H31.4471V146.02H36.0071V147.7H31.4471V155.14C31.4471 156.26 32.0071 156.82 33.1271 156.82H36.2471V157.78L35.2871 158.5H33.1271C30.7271 158.5 29.5271 157.3 29.5271 154.9ZM44.8832 154.828V141.94H46.8992V155.044C46.8992 156.132 47.4432 156.676 48.5312 156.676H53.7152C54.8032 156.676 55.3472 156.132 55.3472 155.044V141.94H57.3632V154.828C57.3632 157.276 56.1392 158.5 53.6912 158.5H48.5552C46.1072 158.5 44.8832 157.276 44.8832 154.828ZM61.3106 163.3V146.02H68.0306C70.4306 146.02 71.6306 147.22 71.6306 149.62V154.9C71.6306 157.3 70.4306 158.5 68.0306 158.5H63.2306V163.3H61.3106ZM63.2306 156.82H68.0306C69.1506 156.82 69.7106 156.26 69.7106 155.14V149.38C69.7106 148.26 69.1506 147.7 68.0306 147.7H63.2306V156.82ZM79.605 142.372L79.869 141.94H81.573L86.085 150.316L90.597 141.94H92.301L92.565 142.372L87.093 152.356V158.5H85.077V152.356L79.605 142.372ZM93.8139 154.9V149.62C93.8139 147.22 95.0139 146.02 97.4139 146.02H100.774C103.174 146.02 104.374 147.22 104.374 149.62V154.9C104.374 157.3 103.174 158.5 100.774 158.5H97.4139C95.0139 158.5 93.8139 157.3 93.8139 154.9ZM95.7339 155.14C95.7339 156.26 96.2939 156.82 97.4139 156.82H100.774C101.894 156.82 102.454 156.26 102.454 155.14V149.38C102.454 148.26 101.894 147.7 100.774 147.7H97.4139C96.2939 147.7 95.7339 148.26 95.7339 149.38V155.14ZM107.926 154.9V146.02H109.846V155.14C109.846 156.26 110.406 156.82 111.526 156.82H116.326V146.02H118.246V158.5H111.526C109.126 158.5 107.926 157.3 107.926 154.9ZM121.988 158.5V147.46C122.548 146.5 123.588 146.02 125.108 146.02H127.508L128.468 146.74V147.7H125.372C124.7 147.7 124.212 147.884 123.908 148.252V158.5H121.988ZM135.579 142.372L135.891 141.94H137.499L140.955 156.676H141.267L144.891 143.764H146.907L150.507 156.676H150.843L154.299 141.94H155.907L156.219 142.372L152.403 158.5H149.067L145.899 147.028L142.731 158.5H139.395L135.579 142.372ZM161.083 158.5C158.667 158.5 157.459 157.292 157.459 154.876C157.459 152.46 158.667 151.252 161.083 151.252H165.475V149.38C165.475 148.26 164.915 147.7 163.795 147.7H158.659V146.74L159.619 146.02H163.795C166.195 146.02 167.395 147.22 167.395 149.62V158.5H161.083ZM159.379 155.14C159.379 156.26 159.939 156.82 161.059 156.82H165.475V152.812H161.059C159.939 152.812 159.379 153.372 159.379 154.492V155.14ZM171.043 155.092V140.74H172.963V155.284C172.963 156.388 173.523 156.972 174.643 157.036V158.692C172.243 158.692 171.043 157.492 171.043 155.092ZM177.277 155.092V140.74H179.197V155.284C179.197 156.388 179.757 156.972 180.877 157.036V158.692C178.477 158.692 177.277 157.492 177.277 155.092ZM183.416 154.9V149.62C183.416 147.22 184.616 146.02 187.016 146.02H190.136C192.536 146.02 193.736 147.22 193.736 149.62V153.004H185.336V155.14C185.336 156.26 185.896 156.82 187.016 156.82H193.256V157.78L192.296 158.5H187.016C184.616 158.5 183.416 157.3 183.416 154.9ZM185.336 151.444H191.816V149.38C191.816 148.26 191.256 147.7 190.136 147.7H187.016C185.896 147.7 185.336 148.26 185.336 149.38V151.444ZM197.293 154.9V141.94H199.213V146.02H203.773V147.7H199.213V155.14C199.213 156.26 199.773 156.82 200.893 156.82H204.013V157.78L203.053 158.5H200.893C198.493 158.5 197.293 157.3 197.293 154.9Z" fill="white"/>
<path d="M220 82.5C219.448 82.5 219 82.9477 219 83.5C219 84.0523 219.448 84.5 220 84.5L220 82.5ZM391.774 83.5L386 77.7265L380.227 83.5L386 89.2735L391.774 83.5ZM225.929 84.5C226.481 84.5 226.929 84.0523 226.929 83.5C226.929 82.9477 226.481 82.5 225.929 82.5L225.929 84.5ZM237.786 82.5C237.233 82.5 236.786 82.9477 236.786 83.5C236.786 84.0523 237.233 84.5 237.786 84.5L237.786 82.5ZM249.643 84.5C250.195 84.5 250.643 84.0523 250.643 83.5C250.643 82.9477 250.195 82.5 249.643 82.5L249.643 84.5ZM261.5 82.5C260.948 82.5 260.5 82.9477 260.5 83.5C260.5 84.0523 260.948 84.5 261.5 84.5L261.5 82.5ZM273.357 84.5C273.909 84.5 274.357 84.0523 274.357 83.5C274.357 82.9477 273.909 82.5 273.357 82.5L273.357 84.5ZM285.214 82.5C284.662 82.5 284.214 82.9477 284.214 83.5C284.214 84.0523 284.662 84.5 285.214 84.5L285.214 82.5ZM297.071 84.5C297.624 84.5 298.071 84.0523 298.071 83.5C298.071 82.9477 297.624 82.5 297.071 82.5L297.071 84.5ZM308.929 82.5C308.376 82.5 307.929 82.9477 307.929 83.5C307.929 84.0523 308.376 84.5 308.929 84.5L308.929 82.5ZM320.786 84.5C321.338 84.5 321.786 84.0523 321.786 83.5C321.786 82.9477 321.338 82.5 320.786 82.5L320.786 84.5ZM332.643 82.5C332.091 82.5 331.643 82.9477 331.643 83.5C331.643 84.0523 332.091 84.5 332.643 84.5L332.643 82.5ZM344.5 84.5C345.052 84.5 345.5 84.0523 345.5 83.5C345.5 82.9477 345.052 82.5 344.5 82.5L344.5 84.5ZM356.357 82.5C355.805 82.5 355.357 82.9477 355.357 83.5C355.357 84.0523 355.805 84.5 356.357 84.5L356.357 82.5ZM368.214 84.5C368.767 84.5 369.214 84.0523 369.214 83.5C369.214 82.9477 368.767 82.5 368.214 82.5L368.214 84.5ZM380.071 82.5C379.519 82.5 379.071 82.9477 379.071 83.5C379.071 84.0523 379.519 84.5 380.071 84.5L380.071 82.5ZM220 84.5L225.929 84.5L225.929 82.5L220 82.5L220 84.5ZM237.786 84.5L249.643 84.5L249.643 82.5L237.786 82.5L237.786 84.5ZM261.5 84.5L273.357 84.5L273.357 82.5L261.5 82.5L261.5 84.5ZM285.214 84.5L297.071 84.5L297.071 82.5L285.214 82.5L285.214 84.5ZM308.929 84.5L320.786 84.5L320.786 82.5L308.929 82.5L308.929 84.5ZM332.643 84.5L344.5 84.5L344.5 82.5L332.643 82.5L332.643 84.5ZM356.357 84.5L368.214 84.5L368.214 82.5L356.357 82.5L356.357 84.5ZM380.071 84.5L386 84.5L386 82.5L380.071 82.5L380.071 84.5Z" fill="white"/>
<defs>
<filter id="filter0_b_108_1530" x="29.5" y="-19.5" width="146" height="146" filterUnits="userSpaceOnUse" color-interpolation-filters="sRGB">
<feFlood flood-opacity="0" result="BackgroundImageFix"/>
<feGaussianBlur in="BackgroundImageFix" stdDeviation="10"/>
<feComposite in2="SourceAlpha" operator="in" result="effect1_backgroundBlur_108_1530"/>
<feBlend mode="normal" in="SourceGraphic" in2="effect1_backgroundBlur_108_1530" result="shape"/>
</filter>
<linearGradient id="paint0_linear_108_1530" x1="49.5" y1="0.5" x2="127.525" y2="124.152" gradientUnits="userSpaceOnUse">
<stop stop-color="white" stop-opacity="0.1"/>
<stop offset="1" stop-color="white" stop-opacity="0.05"/>
</linearGradient>
</defs>
</svg>
