<svg width="436" height="165" viewBox="0 0 436 165" fill="none" xmlns="http://www.w3.org/2000/svg">
<g filter="url(#filter0_b_108_1531)">
<circle cx="132" cy="53.5" r="53" fill="url(#paint0_linear_108_1531)"/>
</g>
<g clip-path="url(#clip0_108_1531)">
<path d="M115.5 40C115.102 40 114.721 39.842 114.439 39.5607C114.158 39.2794 114 38.8978 114 38.5C114 38.1022 114.158 37.7206 114.439 37.4393C114.721 37.158 115.102 37 115.5 37H148.5C148.898 37 149.279 37.158 149.561 37.4393C149.842 37.7206 150 38.1022 150 38.5C150 38.8978 149.842 39.2794 149.561 39.5607C149.279 39.842 148.898 40 148.5 40H115.5ZM121.5 34C121.102 34 120.721 33.842 120.439 33.5607C120.158 33.2794 120 32.8978 120 32.5C120 32.1022 120.158 31.7206 120.439 31.4393C120.721 31.158 121.102 31 121.5 31H142.5C142.898 31 143.279 31.158 143.561 31.4393C143.842 31.7206 144 32.1022 144 32.5C144 32.8978 143.842 33.2794 143.561 33.5607C143.279 33.842 142.898 34 142.5 34H121.5ZM108 68.5C108 69.6935 108.474 70.8381 109.318 71.682C110.162 72.5259 111.307 73 112.5 73H151.5C152.693 73 153.838 72.5259 154.682 71.682C155.526 70.8381 156 69.6935 156 68.5V47.5C156 46.3065 155.526 45.1619 154.682 44.318C153.838 43.4741 152.693 43 151.5 43H112.5C111.307 43 110.162 43.4741 109.318 44.318C108.474 45.1619 108 46.3065 108 47.5V68.5ZM112.5 70C112.102 70 111.721 69.842 111.439 69.5607C111.158 69.2794 111 68.8978 111 68.5V47.5C111 47.1022 111.158 46.7206 111.439 46.4393C111.721 46.158 112.102 46 112.5 46H151.5C151.898 46 152.279 46.158 152.561 46.4393C152.842 46.7206 153 47.1022 153 47.5V68.5C153 68.8978 152.842 69.2794 152.561 69.5607C152.279 69.842 151.898 70 151.5 70H112.5Z" fill="#F81DFB"/>
</g>
<path d="M15.624 154.132C15.32 155.156 14.84 156.012 14.184 156.7C13.528 157.388 12.752 157.9 11.856 158.236C10.96 158.572 9.976 158.74 8.904 158.74C7.336 158.74 5.976 158.412 4.824 157.756C3.688 157.1 2.808 156.164 2.184 154.948C1.576 153.732 1.272 152.276 1.272 150.58C1.272 148.884 1.576 147.428 2.184 146.212C2.808 144.996 3.688 144.06 4.824 143.404C5.976 142.748 7.32 142.42 8.856 142.42C9.944 142.42 10.928 142.572 11.808 142.876C12.688 143.164 13.432 143.612 14.04 144.22C14.664 144.828 15.12 145.596 15.408 146.524L12.408 147.796C12.136 146.836 11.72 146.156 11.16 145.756C10.6 145.34 9.88 145.132 9 145.132C8.136 145.132 7.376 145.34 6.72 145.756C6.08 146.172 5.584 146.788 5.232 147.604C4.88 148.404 4.704 149.396 4.704 150.58C4.704 151.748 4.864 152.74 5.184 153.556C5.52 154.372 6.008 154.988 6.648 155.404C7.288 155.82 8.072 156.028 9 156.028C9.864 156.028 10.608 155.796 11.232 155.332C11.872 154.868 12.32 154.164 12.576 153.22L15.624 154.132ZM18.1108 158.5V146.5H20.9668L21.1828 148.852C21.5028 148.02 21.9668 147.38 22.5748 146.932C23.1988 146.484 23.9748 146.26 24.9028 146.26C25.1748 146.26 25.4228 146.284 25.6468 146.332C25.8708 146.38 26.0548 146.444 26.1988 146.524L25.8148 149.284C25.6548 149.22 25.4548 149.172 25.2148 149.14C24.9908 149.108 24.6948 149.092 24.3268 149.092C23.8468 149.092 23.3828 149.212 22.9348 149.452C22.4868 149.676 22.1188 150.028 21.8308 150.508C21.5428 150.972 21.3988 151.564 21.3988 152.284V158.5H18.1108ZM33.5694 158.74C32.3054 158.74 31.2014 158.492 30.2574 157.996C29.3294 157.5 28.6094 156.788 28.0974 155.86C27.5854 154.932 27.3294 153.812 27.3294 152.5C27.3294 151.188 27.5854 150.068 28.0974 149.14C28.6094 148.212 29.3214 147.5 30.2334 147.004C31.1614 146.508 32.2174 146.26 33.4014 146.26C34.6174 146.26 35.6494 146.508 36.4974 147.004C37.3454 147.484 37.9934 148.148 38.4414 148.996C38.8894 149.828 39.1134 150.78 39.1134 151.852C39.1134 152.172 39.1054 152.476 39.0894 152.764C39.0734 153.052 39.0494 153.308 39.0174 153.532H29.4414V151.252H37.5774L35.9934 151.828C35.9934 150.82 35.7614 150.044 35.2974 149.5C34.8494 148.956 34.2094 148.684 33.3774 148.684C32.7694 148.684 32.2414 148.828 31.7934 149.116C31.3614 149.404 31.0334 149.836 30.8094 150.412C30.5854 150.972 30.4734 151.684 30.4734 152.548C30.4734 153.396 30.5934 154.1 30.8334 154.66C31.0894 155.204 31.4414 155.612 31.8894 155.884C32.3534 156.156 32.9054 156.292 33.5454 156.292C34.2494 156.292 34.8174 156.156 35.2494 155.884C35.6814 155.612 36.0174 155.236 36.2574 154.756L38.8734 155.764C38.6174 156.388 38.2254 156.924 37.6974 157.372C37.1854 157.82 36.5694 158.164 35.8494 158.404C35.1454 158.628 34.3854 158.74 33.5694 158.74ZM48.7399 150.844C48.7399 150.156 48.5399 149.62 48.1399 149.236C47.7559 148.852 47.2439 148.66 46.6039 148.66C46.0119 148.66 45.4919 148.812 45.0439 149.116C44.5959 149.42 44.2679 149.924 44.0599 150.628L41.2519 149.764C41.5239 148.708 42.1159 147.86 43.0279 147.22C43.9559 146.58 45.1959 146.26 46.7479 146.26C47.8039 146.26 48.7239 146.428 49.5079 146.764C50.2919 147.084 50.8999 147.572 51.3319 148.228C51.7799 148.884 52.0039 149.708 52.0039 150.7V155.572C52.0039 156.18 52.2919 156.484 52.8679 156.484C53.1399 156.484 53.3959 156.444 53.6359 156.364L53.4439 158.404C53.0279 158.612 52.5079 158.716 51.8839 158.716C51.3239 158.716 50.8199 158.62 50.3719 158.428C49.9239 158.236 49.5719 157.948 49.3159 157.564C49.0599 157.164 48.9319 156.668 48.9319 156.076V155.98L49.5079 155.884C49.4119 156.492 49.1479 157.012 48.7159 157.444C48.2839 157.86 47.7559 158.18 47.1319 158.404C46.5239 158.628 45.8919 158.74 45.2359 158.74C44.4199 158.74 43.7159 158.62 43.1239 158.38C42.5319 158.124 42.0759 157.756 41.7559 157.276C41.4359 156.796 41.2759 156.204 41.2759 155.5C41.2759 154.604 41.5639 153.876 42.1399 153.316C42.7159 152.74 43.5399 152.348 44.6119 152.14L49.1239 151.228L49.0999 153.268L46.2199 153.844C45.6759 153.956 45.2599 154.108 44.9719 154.3C44.6999 154.476 44.5639 154.772 44.5639 155.188C44.5639 155.588 44.7079 155.892 44.9959 156.1C45.2999 156.308 45.6599 156.412 46.0759 156.412C46.4119 156.412 46.7399 156.372 47.0599 156.292C47.3799 156.212 47.6679 156.084 47.9239 155.908C48.1799 155.732 48.3799 155.492 48.5239 155.188C48.6679 154.884 48.7399 154.516 48.7399 154.084V150.844ZM59.4604 142.828V154.588C59.4604 155.164 59.6044 155.588 59.8924 155.86C60.1964 156.116 60.6044 156.244 61.1164 156.244C61.5164 156.244 61.8684 156.188 62.1724 156.076C62.4764 155.948 62.7484 155.78 62.9884 155.572L63.5164 157.756C63.1324 158.06 62.6524 158.3 62.0764 158.476C61.5004 158.652 60.8924 158.74 60.2524 158.74C59.4524 158.74 58.7404 158.62 58.1164 158.38C57.5084 158.14 57.0284 157.756 56.6764 157.228C56.3404 156.7 56.1724 155.996 56.1724 155.116V143.74L59.4604 142.828ZM63.3004 146.5V148.948H53.9644V146.5H63.3004ZM71.0929 158.74C69.8289 158.74 68.7249 158.492 67.7809 157.996C66.8529 157.5 66.1329 156.788 65.6209 155.86C65.1089 154.932 64.8529 153.812 64.8529 152.5C64.8529 151.188 65.1089 150.068 65.6209 149.14C66.1329 148.212 66.8449 147.5 67.7569 147.004C68.6849 146.508 69.7409 146.26 70.9249 146.26C72.1409 146.26 73.1729 146.508 74.0209 147.004C74.8689 147.484 75.5169 148.148 75.9649 148.996C76.4129 149.828 76.6369 150.78 76.6369 151.852C76.6369 152.172 76.6289 152.476 76.6129 152.764C76.5969 153.052 76.5729 153.308 76.5409 153.532H66.9649V151.252H75.1009L73.5169 151.828C73.5169 150.82 73.2849 150.044 72.8209 149.5C72.3729 148.956 71.7329 148.684 70.9009 148.684C70.2929 148.684 69.7649 148.828 69.3169 149.116C68.8849 149.404 68.5569 149.836 68.3329 150.412C68.1089 150.972 67.9969 151.684 67.9969 152.548C67.9969 153.396 68.1169 154.1 68.3569 154.66C68.6129 155.204 68.9649 155.612 69.4129 155.884C69.8769 156.156 70.4289 156.292 71.0689 156.292C71.7729 156.292 72.3409 156.156 72.7729 155.884C73.2049 155.612 73.5409 155.236 73.7809 154.756L76.3969 155.764C76.1409 156.388 75.7489 156.924 75.2209 157.372C74.7089 157.82 74.0929 158.164 73.3729 158.404C72.6689 158.628 71.9089 158.74 71.0929 158.74ZM99.0184 142.66L93.4024 152.572V158.5H90.0904V152.572L84.4744 142.66H88.0024L90.5464 147.412L91.7464 149.884L92.9704 147.412L95.5144 142.66H99.0184ZM104.161 146.26C105.377 146.26 106.441 146.508 107.353 147.004C108.281 147.5 109.001 148.212 109.513 149.14C110.041 150.068 110.305 151.188 110.305 152.5C110.305 153.796 110.041 154.916 109.513 155.86C109.001 156.788 108.281 157.5 107.353 157.996C106.441 158.492 105.377 158.74 104.161 158.74C102.961 158.74 101.897 158.492 100.969 157.996C100.041 157.5 99.3129 156.788 98.7849 155.86C98.2729 154.916 98.0169 153.796 98.0169 152.5C98.0169 151.188 98.2729 150.068 98.7849 149.14C99.3129 148.212 100.041 147.5 100.969 147.004C101.897 146.508 102.961 146.26 104.161 146.26ZM104.161 148.708C103.553 148.708 103.033 148.852 102.601 149.14C102.185 149.412 101.865 149.828 101.641 150.388C101.417 150.948 101.305 151.652 101.305 152.5C101.305 153.348 101.417 154.052 101.641 154.612C101.865 155.172 102.185 155.596 102.601 155.884C103.033 156.156 103.553 156.292 104.161 156.292C104.753 156.292 105.257 156.156 105.673 155.884C106.105 155.596 106.433 155.172 106.657 154.612C106.881 154.052 106.993 153.348 106.993 152.5C106.993 151.652 106.881 150.948 106.657 150.388C106.433 149.828 106.105 149.412 105.673 149.14C105.257 148.852 104.753 148.708 104.161 148.708ZM117.232 158.74C116.432 158.74 115.712 158.596 115.072 158.308C114.432 158.02 113.92 157.564 113.536 156.94C113.168 156.3 112.984 155.476 112.984 154.468V146.5H116.272V153.676C116.272 154.604 116.464 155.252 116.848 155.62C117.232 155.972 117.784 156.148 118.504 156.148C118.84 156.148 119.168 156.092 119.488 155.98C119.808 155.852 120.088 155.66 120.328 155.404C120.584 155.148 120.784 154.82 120.928 154.42C121.072 154.004 121.144 153.516 121.144 152.956V146.5H124.432V158.5H121.504L121.384 156.412C120.984 157.212 120.432 157.804 119.728 158.188C119.04 158.556 118.208 158.74 117.232 158.74ZM127.892 158.5V146.5H130.748L130.964 148.852C131.284 148.02 131.748 147.38 132.356 146.932C132.98 146.484 133.756 146.26 134.684 146.26C134.956 146.26 135.204 146.284 135.428 146.332C135.652 146.38 135.836 146.444 135.98 146.524L135.596 149.284C135.436 149.22 135.236 149.172 134.996 149.14C134.772 149.108 134.476 149.092 134.108 149.092C133.628 149.092 133.164 149.212 132.716 149.452C132.268 149.676 131.9 150.028 131.612 150.508C131.324 150.972 131.18 151.564 131.18 152.284V158.5H127.892ZM158.804 154.132C158.5 155.156 158.02 156.012 157.364 156.7C156.708 157.388 155.932 157.9 155.036 158.236C154.14 158.572 153.156 158.74 152.084 158.74C150.516 158.74 149.156 158.412 148.004 157.756C146.868 157.1 145.988 156.164 145.364 154.948C144.756 153.732 144.452 152.276 144.452 150.58C144.452 148.884 144.756 147.428 145.364 146.212C145.988 144.996 146.868 144.06 148.004 143.404C149.156 142.748 150.5 142.42 152.036 142.42C153.124 142.42 154.108 142.572 154.988 142.876C155.868 143.164 156.612 143.612 157.22 144.22C157.844 144.828 158.3 145.596 158.588 146.524L155.588 147.796C155.316 146.836 154.9 146.156 154.34 145.756C153.78 145.34 153.06 145.132 152.18 145.132C151.316 145.132 150.556 145.34 149.9 145.756C149.26 146.172 148.764 146.788 148.412 147.604C148.06 148.404 147.884 149.396 147.884 150.58C147.884 151.748 148.044 152.74 148.364 153.556C148.7 154.372 149.188 154.988 149.828 155.404C150.468 155.82 151.252 156.028 152.18 156.028C153.044 156.028 153.788 155.796 154.412 155.332C155.052 154.868 155.5 154.164 155.756 153.22L158.804 154.132ZM166.763 146.26C167.979 146.26 169.043 146.508 169.955 147.004C170.883 147.5 171.603 148.212 172.115 149.14C172.643 150.068 172.907 151.188 172.907 152.5C172.907 153.796 172.643 154.916 172.115 155.86C171.603 156.788 170.883 157.5 169.955 157.996C169.043 158.492 167.979 158.74 166.763 158.74C165.563 158.74 164.499 158.492 163.571 157.996C162.643 157.5 161.915 156.788 161.387 155.86C160.875 154.916 160.619 153.796 160.619 152.5C160.619 151.188 160.875 150.068 161.387 149.14C161.915 148.212 162.643 147.5 163.571 147.004C164.499 146.508 165.563 146.26 166.763 146.26ZM166.763 148.708C166.155 148.708 165.635 148.852 165.203 149.14C164.787 149.412 164.467 149.828 164.243 150.388C164.019 150.948 163.907 151.652 163.907 152.5C163.907 153.348 164.019 154.052 164.243 154.612C164.467 155.172 164.787 155.596 165.203 155.884C165.635 156.156 166.155 156.292 166.763 156.292C167.355 156.292 167.859 156.156 168.275 155.884C168.707 155.596 169.035 155.172 169.259 154.612C169.483 154.052 169.595 153.348 169.595 152.5C169.595 151.652 169.483 150.948 169.259 150.388C169.035 149.828 168.707 149.412 168.275 149.14C167.859 148.852 167.355 148.708 166.763 148.708ZM178.898 141.244V154.804C178.898 155.364 178.994 155.756 179.186 155.98C179.378 156.204 179.698 156.316 180.146 156.316C180.418 156.316 180.642 156.3 180.818 156.268C180.994 156.22 181.218 156.156 181.49 156.076L181.202 158.236C180.93 158.396 180.586 158.516 180.17 158.596C179.77 158.692 179.37 158.74 178.97 158.74C177.802 158.74 176.946 158.46 176.402 157.9C175.874 157.324 175.61 156.412 175.61 155.164V141.244H178.898ZM186.562 141.244V154.804C186.562 155.364 186.658 155.756 186.85 155.98C187.042 156.204 187.362 156.316 187.81 156.316C188.082 156.316 188.306 156.3 188.482 156.268C188.658 156.22 188.882 156.156 189.154 156.076L188.866 158.236C188.594 158.396 188.25 158.516 187.834 158.596C187.434 158.692 187.034 158.74 186.634 158.74C185.466 158.74 184.61 158.46 184.066 157.9C183.538 157.324 183.274 156.412 183.274 155.164V141.244H186.562ZM196.554 158.74C195.29 158.74 194.186 158.492 193.242 157.996C192.314 157.5 191.594 156.788 191.082 155.86C190.57 154.932 190.314 153.812 190.314 152.5C190.314 151.188 190.57 150.068 191.082 149.14C191.594 148.212 192.306 147.5 193.218 147.004C194.146 146.508 195.202 146.26 196.386 146.26C197.602 146.26 198.634 146.508 199.482 147.004C200.33 147.484 200.978 148.148 201.426 148.996C201.874 149.828 202.098 150.78 202.098 151.852C202.098 152.172 202.09 152.476 202.074 152.764C202.058 153.052 202.034 153.308 202.002 153.532H192.426V151.252H200.562L198.978 151.828C198.978 150.82 198.746 150.044 198.282 149.5C197.834 148.956 197.194 148.684 196.362 148.684C195.754 148.684 195.226 148.828 194.778 149.116C194.346 149.404 194.018 149.836 193.794 150.412C193.57 150.972 193.458 151.684 193.458 152.548C193.458 153.396 193.578 154.1 193.818 154.66C194.074 155.204 194.426 155.612 194.874 155.884C195.338 156.156 195.89 156.292 196.53 156.292C197.234 156.292 197.802 156.156 198.234 155.884C198.666 155.612 199.002 155.236 199.242 154.756L201.858 155.764C201.602 156.388 201.21 156.924 200.682 157.372C200.17 157.82 199.554 158.164 198.834 158.404C198.13 158.628 197.37 158.74 196.554 158.74ZM210.332 146.26C211.404 146.26 212.308 146.42 213.044 146.74C213.796 147.044 214.396 147.468 214.844 148.012C215.308 148.54 215.636 149.132 215.828 149.788L212.756 150.892C212.596 150.172 212.324 149.628 211.94 149.26C211.556 148.892 211.036 148.708 210.38 148.708C209.772 148.708 209.252 148.852 208.82 149.14C208.388 149.412 208.06 149.836 207.836 150.412C207.612 150.972 207.5 151.676 207.5 152.524C207.5 153.372 207.612 154.076 207.836 154.636C208.076 155.196 208.412 155.612 208.844 155.884C209.292 156.156 209.812 156.292 210.404 156.292C210.884 156.292 211.292 156.212 211.628 156.052C211.964 155.876 212.236 155.628 212.444 155.308C212.668 154.988 212.82 154.604 212.9 154.156L215.876 155.116C215.7 155.836 215.372 156.468 214.892 157.012C214.412 157.556 213.796 157.98 213.044 158.284C212.292 158.588 211.42 158.74 210.428 158.74C209.196 158.74 208.108 158.492 207.164 157.996C206.22 157.5 205.492 156.788 204.98 155.86C204.468 154.932 204.212 153.812 204.212 152.5C204.212 151.188 204.468 150.068 204.98 149.14C205.492 148.212 206.212 147.5 207.14 147.004C208.068 146.508 209.132 146.26 210.332 146.26ZM222.679 142.828V154.588C222.679 155.164 222.823 155.588 223.111 155.86C223.415 156.116 223.823 156.244 224.335 156.244C224.735 156.244 225.087 156.188 225.391 156.076C225.695 155.948 225.967 155.78 226.207 155.572L226.735 157.756C226.351 158.06 225.871 158.3 225.295 158.476C224.719 158.652 224.111 158.74 223.471 158.74C222.671 158.74 221.959 158.62 221.335 158.38C220.727 158.14 220.247 157.756 219.895 157.228C219.559 156.7 219.391 155.996 219.391 155.116V143.74L222.679 142.828ZM226.519 146.5V148.948H217.183V146.5H226.519ZM230.4 144.772C229.712 144.772 229.2 144.628 228.864 144.34C228.528 144.036 228.36 143.596 228.36 143.02C228.36 142.428 228.528 141.988 228.864 141.7C229.2 141.396 229.712 141.244 230.4 141.244C231.088 141.244 231.6 141.396 231.936 141.7C232.272 141.988 232.44 142.428 232.44 143.02C232.44 143.596 232.272 144.036 231.936 144.34C231.6 144.628 231.088 144.772 230.4 144.772ZM232.032 146.5V158.5H228.744V146.5H232.032ZM240.989 146.26C242.205 146.26 243.269 146.508 244.181 147.004C245.109 147.5 245.829 148.212 246.341 149.14C246.869 150.068 247.133 151.188 247.133 152.5C247.133 153.796 246.869 154.916 246.341 155.86C245.829 156.788 245.109 157.5 244.181 157.996C243.269 158.492 242.205 158.74 240.989 158.74C239.789 158.74 238.725 158.492 237.797 157.996C236.869 157.5 236.141 156.788 235.613 155.86C235.101 154.916 234.845 153.796 234.845 152.5C234.845 151.188 235.101 150.068 235.613 149.14C236.141 148.212 236.869 147.5 237.797 147.004C238.725 146.508 239.789 146.26 240.989 146.26ZM240.989 148.708C240.381 148.708 239.861 148.852 239.429 149.14C239.013 149.412 238.693 149.828 238.469 150.388C238.245 150.948 238.133 151.652 238.133 152.5C238.133 153.348 238.245 154.052 238.469 154.612C238.693 155.172 239.013 155.596 239.429 155.884C239.861 156.156 240.381 156.292 240.989 156.292C241.581 156.292 242.085 156.156 242.501 155.884C242.933 155.596 243.261 155.172 243.485 154.612C243.709 154.052 243.821 153.348 243.821 152.5C243.821 151.652 243.709 150.948 243.485 150.388C243.261 149.828 242.933 149.412 242.501 149.14C242.085 148.852 241.581 148.708 240.989 148.708ZM249.884 158.5V146.5H252.836L253.028 150.1L252.62 149.716C252.812 148.932 253.116 148.284 253.532 147.772C253.948 147.26 254.452 146.884 255.044 146.644C255.652 146.388 256.316 146.26 257.036 146.26C257.868 146.26 258.604 146.42 259.244 146.74C259.9 147.06 260.412 147.548 260.78 148.204C261.164 148.844 261.356 149.652 261.356 150.628V158.5H258.068V151.564C258.068 150.54 257.868 149.836 257.468 149.452C257.068 149.052 256.548 148.852 255.908 148.852C255.46 148.852 255.02 148.964 254.588 149.188C254.172 149.396 253.828 149.74 253.556 150.22C253.3 150.7 253.172 151.34 253.172 152.14V158.5H249.884Z" fill="white"/>
<path d="M264 81.5C263.448 81.5 263 81.9477 263 82.5C263 83.0523 263.448 83.5 264 83.5L264 81.5ZM435.774 82.5L430 76.7265L424.227 82.5L430 88.2735L435.774 82.5ZM269.929 83.5C270.481 83.5 270.929 83.0523 270.929 82.5C270.929 81.9477 270.481 81.5 269.929 81.5L269.929 83.5ZM281.786 81.5C281.233 81.5 280.786 81.9477 280.786 82.5C280.786 83.0523 281.233 83.5 281.786 83.5L281.786 81.5ZM293.643 83.5C294.195 83.5 294.643 83.0523 294.643 82.5C294.643 81.9477 294.195 81.5 293.643 81.5L293.643 83.5ZM305.5 81.5C304.948 81.5 304.5 81.9477 304.5 82.5C304.5 83.0523 304.948 83.5 305.5 83.5L305.5 81.5ZM317.357 83.5C317.909 83.5 318.357 83.0523 318.357 82.5C318.357 81.9477 317.909 81.5 317.357 81.5L317.357 83.5ZM329.214 81.5C328.662 81.5 328.214 81.9477 328.214 82.5C328.214 83.0523 328.662 83.5 329.214 83.5L329.214 81.5ZM341.071 83.5C341.624 83.5 342.071 83.0523 342.071 82.5C342.071 81.9477 341.624 81.5 341.071 81.5L341.071 83.5ZM352.929 81.5C352.376 81.5 351.929 81.9477 351.929 82.5C351.929 83.0523 352.376 83.5 352.929 83.5L352.929 81.5ZM364.786 83.5C365.338 83.5 365.786 83.0523 365.786 82.5C365.786 81.9477 365.338 81.5 364.786 81.5L364.786 83.5ZM376.643 81.5C376.091 81.5 375.643 81.9477 375.643 82.5C375.643 83.0523 376.091 83.5 376.643 83.5L376.643 81.5ZM388.5 83.5C389.052 83.5 389.5 83.0523 389.5 82.5C389.5 81.9477 389.052 81.5 388.5 81.5L388.5 83.5ZM400.357 81.5C399.805 81.5 399.357 81.9477 399.357 82.5C399.357 83.0523 399.805 83.5 400.357 83.5L400.357 81.5ZM412.214 83.5C412.767 83.5 413.214 83.0523 413.214 82.5C413.214 81.9477 412.767 81.5 412.214 81.5L412.214 83.5ZM424.071 81.5C423.519 81.5 423.071 81.9477 423.071 82.5C423.071 83.0523 423.519 83.5 424.071 83.5L424.071 81.5ZM264 83.5L269.929 83.5L269.929 81.5L264 81.5L264 83.5ZM281.786 83.5L293.643 83.5L293.643 81.5L281.786 81.5L281.786 83.5ZM305.5 83.5L317.357 83.5L317.357 81.5L305.5 81.5L305.5 83.5ZM329.214 83.5L341.071 83.5L341.071 81.5L329.214 81.5L329.214 83.5ZM352.929 83.5L364.786 83.5L364.786 81.5L352.929 81.5L352.929 83.5ZM376.643 83.5L388.5 83.5L388.5 81.5L376.643 81.5L376.643 83.5ZM400.357 83.5L412.214 83.5L412.214 81.5L400.357 81.5L400.357 83.5ZM424.071 83.5L430 83.5L430 81.5L424.071 81.5L424.071 83.5Z" fill="white"/>
<defs>
<filter id="filter0_b_108_1531" x="59" y="-19.5" width="146" height="146" filterUnits="userSpaceOnUse" color-interpolation-filters="sRGB">
<feFlood flood-opacity="0" result="BackgroundImageFix"/>
<feGaussianBlur in="BackgroundImageFix" stdDeviation="10"/>
<feComposite in2="SourceAlpha" operator="in" result="effect1_backgroundBlur_108_1531"/>
<feBlend mode="normal" in="SourceGraphic" in2="effect1_backgroundBlur_108_1531" result="shape"/>
</filter>
<linearGradient id="paint0_linear_108_1531" x1="79" y1="0.5" x2="157.025" y2="124.152" gradientUnits="userSpaceOnUse">
<stop stop-color="white" stop-opacity="0.1"/>
<stop offset="1" stop-color="white" stop-opacity="0.05"/>
</linearGradient>
<clipPath id="clip0_108_1531">
<rect width="48" height="48" fill="white" transform="translate(108 29.5)"/>
</clipPath>
</defs>
</svg>
