<svg width="106" height="107" viewBox="0 0 106 107" fill="none" xmlns="http://www.w3.org/2000/svg">
<g filter="url(#filter0_b_108_1497)">
<circle cx="53" cy="53.5" r="53" fill="url(#paint0_linear_108_1497)"/>
</g>
<path d="M51.1318 45.5078L51.4998 45.4978H66.4998C68.1598 45.4977 69.7569 46.1326 70.9637 47.2725C72.1704 48.4123 72.8954 49.9706 72.9898 51.6278L72.9998 51.9978V66.9978C73 68.6581 72.3647 70.2555 71.2245 71.4623C70.0843 72.6691 68.5255 73.3938 66.8678 73.4878L66.4998 73.4978H51.4998C49.8396 73.498 48.2422 72.8627 47.0354 71.7225C45.8286 70.5823 45.1038 69.0235 45.0098 67.3658L44.9998 66.9998V51.9998C44.9997 50.3396 45.635 48.7422 46.7752 47.5354C47.9154 46.3286 49.4742 45.6038 51.1318 45.5098V45.5078ZM66.4998 48.4978H51.4998C50.6215 48.4979 49.7752 48.8282 49.1291 49.4232C48.4829 50.0182 48.0841 50.8344 48.0118 51.7098L47.9998 51.9978V66.9978C47.9999 67.8765 48.3305 68.7231 48.9259 69.3693C49.5214 70.0155 50.3381 70.414 51.2138 70.4858L51.4998 70.4978H66.4998C67.3785 70.4978 68.2251 70.1672 68.8713 69.5718C69.5175 68.9763 69.916 68.1596 69.9878 67.2838L69.9998 66.9978V51.9978C69.9998 51.0696 69.6311 50.1793 68.9747 49.523C68.3183 48.8666 67.4281 48.4978 66.4998 48.4978ZM58.9998 51.4998C59.3977 51.4998 59.7792 51.6579 60.0605 51.9392C60.3418 52.2205 60.4998 52.602 60.4998 52.9998V57.9958H65.4998C65.8977 57.9958 66.2792 58.1539 66.5605 58.4352C66.8418 58.7165 66.9998 59.098 66.9998 59.4958C66.9998 59.8937 66.8418 60.2752 66.5605 60.5565C66.2792 60.8378 65.8977 60.9958 65.4998 60.9958H60.4998V65.9998C60.4998 66.3977 60.3418 66.7792 60.0605 67.0605C59.7792 67.3418 59.3977 67.4998 58.9998 67.4998C58.602 67.4998 58.2205 67.3418 57.9392 67.0605C57.6579 66.7792 57.4998 66.3977 57.4998 65.9998V60.9958H52.4998C52.102 60.9958 51.7205 60.8378 51.4392 60.5565C51.1579 60.2752 50.9998 59.8937 50.9998 59.4958C50.9998 59.098 51.1579 58.7165 51.4392 58.4352C51.7205 58.1539 52.102 57.9958 52.4998 57.9958H57.4998V52.9998C57.4998 52.602 57.6579 52.2205 57.9392 51.9392C58.2205 51.6579 58.602 51.4998 58.9998 51.4998ZM60.1638 37.9658L60.2678 38.3198L61.6538 43.4958H58.5478L57.3718 39.0958C57.253 38.6516 57.0478 38.2352 56.768 37.8703C56.4881 37.5054 56.1391 37.1993 55.7409 36.9693C55.3427 36.7394 54.9031 36.5902 54.4471 36.5302C53.9912 36.4702 53.528 36.5007 53.0838 36.6198L38.5958 40.5038C37.7501 40.7306 37.0201 41.2662 36.5499 42.0049C36.0796 42.7435 35.9034 43.6316 36.0558 44.4938L36.1198 44.7898L40.0038 59.2778C40.186 59.9586 40.5695 60.5686 41.104 61.0279C41.6386 61.4871 42.2994 61.7743 42.9998 61.8518V64.8638C41.6995 64.7863 40.4524 64.3202 39.42 63.5257C38.3877 62.7312 37.6177 61.645 37.2098 60.4078L37.1058 60.0558L33.2238 45.5658C32.7938 43.9626 32.9935 42.2556 33.7819 40.7948C34.5703 39.3341 35.8876 38.2303 37.4638 37.7098L37.8198 37.6058L52.3078 33.7238C53.9111 33.2938 55.6181 33.4935 57.0788 34.2819C58.5396 35.0703 59.6434 36.3876 60.1638 37.9638V37.9658Z" fill="#F81DFB"/>
<defs>
<filter id="filter0_b_108_1497" x="-20" y="-19.5" width="146" height="146" filterUnits="userSpaceOnUse" color-interpolation-filters="sRGB">
<feFlood flood-opacity="0" result="BackgroundImageFix"/>
<feGaussianBlur in="BackgroundImageFix" stdDeviation="10"/>
<feComposite in2="SourceAlpha" operator="in" result="effect1_backgroundBlur_108_1497"/>
<feBlend mode="normal" in="SourceGraphic" in2="effect1_backgroundBlur_108_1497" result="shape"/>
</filter>
<linearGradient id="paint0_linear_108_1497" x1="0" y1="0.5" x2="78.0246" y2="124.152" gradientUnits="userSpaceOnUse">
<stop stop-color="white" stop-opacity="0.1"/>
<stop offset="1" stop-color="white" stop-opacity="0.05"/>
</linearGradient>
</defs>
</svg>
